<?xml version="1.0" encoding="UTF-8"?>
<svg width="320px" height="90px" viewBox="0 0 320 90" version="1.1" xmlns="http://www.w3.org/2000/svg" xmlns:xlink="http://www.w3.org/1999/xlink">
    <title>Group</title>
    <g id="Style-Guide" stroke="none" stroke-width="1" fill="none" fill-rule="evenodd">
        <g id="06-Logo-Usage" transform="translate(-163.000000, -454.000000)" fill-rule="nonzero">
            <g id="Clear-Space" transform="translate(123.000000, 418.000000)">
                <g id="Group" transform="translate(40.500000, 36.450000)">
                    <path d="M21.13875,84.6 L21.13875,59.1882353 C21.13875,57.6970665 22.3475812,56.4882353 23.83875,56.4882353 L54.57375,56.4882353 C56.0649188,56.4882353 57.27375,55.2794041 57.27375,53.7882353 L57.27375,40.3160294 C57.27375,38.8248606 56.0649188,37.6160294 54.57375,37.6160294 L23.83875,37.6160294 C22.3475812,37.6160294 21.13875,36.4071982 21.13875,34.9160294 L21.13875,21.8289706 C21.1390207,20.3379075 22.3476869,19.1291201 23.83875,19.1286999 L58.05,19.1252706 C59.5410631,19.1248505 60.7497293,17.9160631 60.75,16.425 L60.75,2.7 C60.75,1.20883118 59.5411688,1.70165941e-16 58.05,0 L2.925,0 C1.43383118,7.18012479e-16 0.225,1.20883118 0.225,2.7 L0.225,84.6 C0.225,86.0911688 1.43383118,87.3 2.925,87.3 L18.43875,87.3 C19.9299188,87.3 21.13875,86.0911688 21.13875,84.6 Z M76.95,19.98 C79.6594737,19.98 81.9868421,19.0422951 83.9321053,17.1668852 C85.8773684,15.2914754 86.85,12.9472131 86.85,10.1340984 C86.85,7.32098361 85.8773684,4.95868852 83.9321053,3.04721311 C81.9868421,1.1357377 79.6594737,0.18 76.95,0.18 C74.1710526,0.18 71.8263158,1.1357377 69.9157895,3.04721311 C68.0052632,4.95868852 67.05,7.32098361 67.05,10.1340984 C67.05,12.9472131 68.0052632,15.2914754 69.9157895,17.1668852 C71.8263158,19.0422951 74.1710526,19.98 76.95,19.98 Z M86.895,84.6 L86.895,29.98125 C86.895,28.4900812 85.6861688,27.28125 84.195,27.28125 L69.5475,27.28125 C68.0563312,27.28125 66.8475,28.4900812 66.8475,29.98125 L66.8475,84.6 C66.8475,86.0911688 68.0563312,87.3 69.5475,87.3 L84.195,87.3 C85.6861688,87.3 86.895,86.0911688 86.895,84.6 Z M115.97625,84.6 L115.97625,49.68 L115.97625,49.68 C117.70875,47.7 119.52375,46.194375 121.42125,45.163125 C123.31875,44.131875 125.21625,43.61625 127.11375,43.61625 C130.49625,43.61625 133.156875,44.68875 135.095625,46.83375 C137.034375,48.97875 138.00375,52.11375 138.00375,56.23875 L138.00375,84.6 C138.00375,86.0911688 139.212581,87.3 140.70375,87.3 L155.475,87.3 C156.966169,87.3 158.175,86.0911688 158.175,84.6 L158.175,53.02125 L158.175,53.02125 C158.175,47.41125 157.1025,42.523125 154.9575,38.356875 C152.8125,34.190625 149.80125,30.99375 145.92375,28.76625 C142.04625,26.53875 137.59125,25.425 132.55875,25.425 C126.45375,25.425 120.92625,27.405 115.97625,31.365 L115.97625,29.98125 C115.97625,28.4900812 114.767419,27.28125 113.27625,27.28125 L98.62875,27.28125 C97.1375812,27.28125 95.92875,28.4900812 95.92875,29.98125 L95.92875,84.6 C95.92875,86.0911688 97.1375812,87.3 98.62875,87.3 L113.27625,87.3 C114.767419,87.3 115.97625,86.0911688 115.97625,84.6 Z M192.90375,87.1875 C199.09125,87.1875 204.5775,85.6885388 209.3625,82.6906163 L209.317506,84.5341214 C209.281122,86.0248463 210.460099,87.2628125 211.950824,87.2991962 C211.972779,87.299732 211.99474,87.3 212.016702,87.3 L226.575,87.3 C228.066169,87.3 229.275,86.0911688 229.275,84.6 L229.275,2.7 C229.275,1.20883118 228.066169,1.94652278e-15 226.575,0 L212.164956,0 C210.677716,5.12418545e-15 209.470518,1.20270722 209.464975,2.68993761 L209.3625,30.1864612 L209.3625,30.1864612 C204.5775,27.1885388 199.09125,25.6895776 192.90375,25.6895776 C187.54125,25.6895776 182.570625,27.0264889 177.991875,29.7003116 C173.413125,32.3741343 169.783125,36.0607687 167.101875,40.7602147 C164.420625,45.4596607 163.08,50.6452562 163.08,56.3170014 C163.08,62.0697715 164.420625,67.2958795 167.101875,71.9953255 C169.783125,76.6947715 173.413125,80.401662 177.991875,83.1159972 C182.570625,85.8303324 187.54125,87.1875 192.90375,87.1875 Z M194.16375,71.87625 C190.12125,71.87625 186.759375,70.4325 184.078125,67.545 C181.396875,64.6575 180.05625,61.11 180.05625,56.9025 C180.05625,52.7775 181.396875,49.27125 184.078125,46.38375 C186.759375,43.49625 190.12125,42.0525 194.16375,42.0525 C199.27875,42.0525 203.445,43.95 206.6625,47.745 C209.88,51.54 209.88,62.595 206.6625,66.3075 C203.445,70.02 199.27875,71.87625 194.16375,71.87625 Z" id="Find" fill="#2C2C31"></path>
                    <g id="check-(1)-copy" transform="translate(235.350000, 24.300000)" fill="#006EE6">
                        <path d="M79.2958848,2.7291442 C74.4996149,-2.070492 65.0374823,-0.37390798 58.1597803,6.51761632 L41.4710645,23.2391485 C37.7529381,26.9638302 33.3253505,31.1409034 29.2171192,31.5967502 C25.7260419,31.9841181 22.4484357,29.1320291 20.2147146,26.8935904 C15.354088,22.0210011 7.52627757,21.9701036 2.73000771,26.7748296 C-2.06626214,31.5795555 -0.377744824,41.0617636 6.49995711,47.9498948 L16.5446875,58.0157278 C23.4206959,64.9072521 34.5865882,64.9242179 41.4676773,58.0377834 C51.4937782,47.9990957 65.5116897,33.9462902 75.5327098,23.8991196 C82.4053309,17.0058988 84.090461,7.52708382 79.2958848,2.7291442 Z" id="Path"></path>
                    </g>
                </g>
            </g>
        </g>
    </g>
</svg>