<?xml version="1.0" encoding="UTF-8"?>
<!DOCTYPE svg PUBLIC "-//W3C//DTD SVG 1.1//EN" "http://www.w3.org/Graphics/SVG/1.1/DTD/svg11.dtd">
<svg version="1.1" xmlns="http://www.w3.org/2000/svg" xmlns:xlink="http://www.w3.org/1999/xlink" x="0" y="0" width="508" height="796" viewBox="0, 0, 508, 796">
  <defs>
    <clipPath id="Clip_1">
      <path d="M502.094,5.42 L502.094,791.086 L5.906,791.086 L5.906,5.42 L502.094,5.42 z"/>
    </clipPath>
  </defs>
  <g id="Layer_1">
    <g clip-path="url(#Clip_1)">
      <path d="M265.456,1278.398 C265.456,1278.398 265.29,1278.376 264.992,1278.344 L256.76,1070.18 L249.72,886.992 L281.192,886.992 L272.118,1110.162 L272.574,1110.162 L265.924,1278.344 C265.624,1278.376 265.456,1278.398 265.456,1278.398 M451.1,165.144 C426.1,94.512 361.082,34.51 332.482,46.5 C286.62,12.886 231.172,18.934 179.794,46.722 C128.414,74.51 100.294,107.276 79.812,165.144 C69.564,194.098 64.736,229.38 62.55,259.942 L45.028,269.26 C43.67,269.982 42.496,270.896 41.508,271.926 C41.27,271.996 41.016,272.036 40.802,272.152 C31.228,277.244 37.792,328.986 64.18,388.708 C53.084,401.002 51.994,422.986 56.854,440.264 C63.378,463.42 64.846,485.844 85.774,504.996 C89.054,507.998 92.032,510.228 94.74,511.928 C106.318,558.184 123.094,635.7 144.956,635.7 C150.212,635.7 156.768,630.566 163.4,623.352 C172.006,631.552 187.876,639.83 198.416,647.23 C197.274,652.728 196.092,658.272 194.872,663.808 C187.342,697.944 175.43,731.184 172.602,751.298 C172.356,752.418 172.11,753.542 171.864,754.67 C171.786,755.024 171.71,755.384 171.632,755.74 L171.106,758.16 C171.016,758.586 170.924,759.01 170.832,759.434 C170.658,760.238 170.488,761.04 170.316,761.846 C170.236,762.218 170.156,762.592 170.078,762.964 C169.84,764.09 169.602,765.216 169.368,766.342 C169.294,766.692 169.224,767.042 169.15,767.392 C168.984,768.196 168.82,768.998 168.658,769.8 C168.564,770.258 168.472,770.714 168.38,771.172 C168.236,771.892 168.092,772.61 167.95,773.33 C167.86,773.786 167.768,774.248 167.68,774.704 C167.512,775.564 167.348,776.424 167.184,777.278 C167.094,777.756 167.004,778.232 166.916,778.706 C166.75,779.594 166.588,780.478 166.428,781.36 C166.34,781.848 166.256,782.33 166.17,782.814 C166.058,783.45 165.946,784.086 165.838,784.716 C165.748,785.236 165.66,785.756 165.574,786.27 C165.47,786.894 165.37,787.512 165.27,788.128 C165.19,788.62 165.11,789.114 165.032,789.604 C164.876,790.606 164.724,791.602 164.582,792.59 C164.512,793.072 164.448,793.544 164.382,794.022 C164.3,794.606 164.218,795.192 164.14,795.772 C164.072,796.29 164.008,796.804 163.944,797.316 C163.876,797.856 163.81,798.396 163.748,798.932 C163.688,799.438 163.63,799.944 163.574,800.446 C163.512,801.024 163.454,801.598 163.398,802.168 C163.322,802.92 163.254,803.662 163.19,804.396 C163.14,804.982 163.09,805.568 163.048,806.142 C163.012,806.634 162.982,807.114 162.952,807.598 C162.922,808.07 162.894,808.538 162.87,809.004 C162.846,809.49 162.822,809.97 162.804,810.448 C162.786,810.91 162.772,811.364 162.762,811.818 C162.75,812.274 162.734,812.734 162.728,813.182 C162.72,813.97 162.72,814.744 162.73,815.506 C162.736,815.942 162.754,816.366 162.768,816.794 C162.78,817.216 162.794,817.638 162.814,818.05 C162.836,818.478 162.862,818.896 162.89,819.312 C162.918,819.7 162.95,820.084 162.984,820.464 C163.02,820.868 163.056,821.272 163.1,821.666 C163.144,822.064 163.2,822.446 163.254,822.834 C163.334,823.424 163.426,823.998 163.528,824.556 C163.6,824.962 163.674,825.368 163.758,825.76 C163.832,826.1 163.916,826.43 164,826.76 C164.08,827.084 164.164,827.404 164.254,827.714 C164.346,828.036 164.442,828.352 164.544,828.662 C164.646,828.97 164.754,829.264 164.864,829.558 C164.972,829.842 165.074,830.13 165.19,830.402 C165.402,830.904 165.63,831.384 165.874,831.842 C165.754,834.904 168.004,836.948 172.056,837.74 C172.058,837.864 172.058,837.99 172.06,838.114 C172.09,839.704 172.16,841.486 172.266,843.432 L172.06,843.3 L172.398,845.598 C175.546,894.52 199.152,1036.076 208.246,1089.458 L236.254,1279.984 C228.194,1281.958 220.262,1285.636 215.116,1292.342 C211.664,1296.842 209.92,1300.402 209.138,1303.198 C209.138,1303.2 209.128,1303.204 209.128,1303.204 C203.14,1314.068 207.704,1318.582 207.704,1318.582 L265.456,1318.082 L323.208,1318.582 C323.208,1318.582 327.772,1314.068 321.784,1303.204 C321.784,1303.204 321.774,1303.2 321.774,1303.198 C320.994,1300.402 319.25,1296.842 315.796,1292.342 C310.652,1285.636 302.718,1281.958 294.66,1279.984 L325.396,1070.888 C336.016,1008.576 355.648,889.626 358.514,845.608 L358.85,843.3 L358.644,843.432 C358.752,841.486 358.824,839.704 358.852,838.114 C358.854,837.99 358.854,837.864 358.856,837.74 C362.91,836.948 365.158,834.904 365.038,831.844 C365.072,831.782 365.098,831.712 365.13,831.652 C365.336,831.254 365.534,830.844 365.718,830.412 C365.84,830.126 365.948,829.824 366.06,829.524 C366.164,829.248 366.266,828.968 366.362,828.68 C366.468,828.358 366.568,828.03 366.664,827.696 C366.75,827.4 366.828,827.096 366.906,826.788 C366.992,826.442 367.082,826.102 367.158,825.744 C367.232,825.406 367.292,825.05 367.358,824.7 C367.476,824.06 367.582,823.4 367.676,822.724 C367.72,822.38 367.768,822.042 367.81,821.692 C367.856,821.274 367.896,820.848 367.932,820.42 C367.964,820.066 367.994,819.71 368.018,819.348 C368.05,818.912 368.078,818.472 368.1,818.024 C368.118,817.646 368.13,817.26 368.142,816.874 C368.166,816.16 368.18,815.432 368.182,814.69 C368.184,814.2 368.19,813.712 368.182,813.212 C368.18,812.724 368.164,812.224 368.15,811.728 C368.138,811.318 368.126,810.906 368.11,810.49 C368.092,809.982 368.068,809.47 368.04,808.952 C368.018,808.53 367.994,808.104 367.966,807.678 C367.932,807.154 367.902,806.634 367.862,806.104 C367.828,805.634 367.784,805.152 367.746,804.674 C367.67,803.778 367.588,802.876 367.496,801.958 C367.444,801.472 367.398,800.988 367.344,800.496 C367.284,799.946 367.22,799.392 367.154,798.838 C367.098,798.356 367.038,797.874 366.978,797.39 C366.91,796.834 366.84,796.278 366.766,795.718 C366.696,795.204 366.624,794.684 366.552,794.166 C366.478,793.63 366.406,793.098 366.328,792.556 C366.186,791.592 366.038,790.62 365.886,789.642 C365.8,789.098 365.71,788.548 365.622,787.998 C365.532,787.444 365.442,786.89 365.35,786.334 C365.256,785.768 365.16,785.202 365.062,784.634 C364.966,784.078 364.868,783.518 364.768,782.958 C364.672,782.402 364.574,781.846 364.472,781.286 C364.35,780.614 364.226,779.938 364.1,779.264 C363.948,778.45 363.796,777.638 363.64,776.822 C363.512,776.142 363.38,775.462 363.25,774.782 C363.144,774.244 363.036,773.706 362.932,773.17 C362.808,772.548 362.684,771.928 362.56,771.306 C362.452,770.768 362.344,770.232 362.234,769.692 C362.1,769.024 361.96,768.358 361.824,767.69 C361.724,767.21 361.626,766.73 361.524,766.25 C361.3,765.168 361.074,764.088 360.846,763.006 L360.564,761.686 C360.408,760.96 360.254,760.234 360.098,759.51 C359.994,759.032 359.892,758.556 359.788,758.08 C359.622,757.308 359.456,756.538 359.288,755.768 C359.208,755.402 359.128,755.036 359.048,754.67 C358.802,753.542 358.556,752.418 358.312,751.298 C355.484,731.184 343.572,697.944 336.042,663.808 C334.942,658.822 333.872,653.826 332.838,648.864 C334.558,649.924 335.92,650.724 336.802,651.184 C343.83,654.86 357.77,660.056 370.258,655.044 C371.842,654.572 373.364,653.842 374.714,652.772 C374.758,652.746 374.8,652.726 374.844,652.698 L374.828,652.678 C378.504,649.688 380.786,644.064 378.914,633.59 C378.732,632.572 376.714,624.782 373.612,613.468 C375.848,599.036 354.884,588.614 393.538,572.622 C428.444,558.18 409.042,552.268 411.292,524.744 C413.546,497.222 461.94,513.746 461.94,412.42 C461.94,383.468 470.516,357.134 468.924,331.256 C469.372,331.084 469.608,330.932 469.608,330.932 C469.608,330.932 474.57,231.446 451.1,165.144" fill="#797979"/>
      <path d="M265.456,1278.398 C265.456,1278.398 265.29,1278.376 264.992,1278.344 L256.76,1070.18 L249.72,886.992 L281.192,886.992 L272.118,1110.162 L272.574,1110.162 L265.924,1278.344 C265.624,1278.376 265.456,1278.398 265.456,1278.398 z M451.1,165.144 C426.1,94.512 361.082,34.51 332.482,46.5 C286.62,12.886 231.172,18.934 179.794,46.722 C128.414,74.51 100.294,107.276 79.812,165.144 C69.564,194.098 64.736,229.38 62.55,259.942 L45.028,269.26 C43.67,269.982 42.496,270.896 41.508,271.926 C41.27,271.996 41.016,272.036 40.802,272.152 C31.228,277.244 37.792,328.986 64.18,388.708 C53.084,401.002 51.994,422.986 56.854,440.264 C63.378,463.42 64.846,485.844 85.774,504.996 C89.054,507.998 92.032,510.228 94.74,511.928 C106.318,558.184 123.094,635.7 144.956,635.7 C150.212,635.7 156.768,630.566 163.4,623.352 C172.006,631.552 187.876,639.83 198.416,647.23 C197.274,652.728 196.092,658.272 194.872,663.808 C187.342,697.944 175.43,731.184 172.602,751.298 C172.356,752.418 172.11,753.542 171.864,754.67 C171.786,755.024 171.71,755.384 171.632,755.74 L171.106,758.16 C171.016,758.586 170.924,759.01 170.832,759.434 C170.658,760.238 170.488,761.04 170.316,761.846 C170.236,762.218 170.156,762.592 170.078,762.964 C169.84,764.09 169.602,765.216 169.368,766.342 C169.294,766.692 169.224,767.042 169.15,767.392 C168.984,768.196 168.82,768.998 168.658,769.8 C168.564,770.258 168.472,770.714 168.38,771.172 C168.236,771.892 168.092,772.61 167.95,773.33 C167.86,773.786 167.768,774.248 167.68,774.704 C167.512,775.564 167.348,776.424 167.184,777.278 C167.094,777.756 167.004,778.232 166.916,778.706 C166.75,779.594 166.588,780.478 166.428,781.36 C166.34,781.848 166.256,782.33 166.17,782.814 C166.058,783.45 165.946,784.086 165.838,784.716 C165.748,785.236 165.66,785.756 165.574,786.27 C165.47,786.894 165.37,787.512 165.27,788.128 C165.19,788.62 165.11,789.114 165.032,789.604 C164.876,790.606 164.724,791.602 164.582,792.59 C164.512,793.072 164.448,793.544 164.382,794.022 C164.3,794.606 164.218,795.192 164.14,795.772 C164.072,796.29 164.008,796.804 163.944,797.316 C163.876,797.856 163.81,798.396 163.748,798.932 C163.688,799.438 163.63,799.944 163.574,800.446 C163.512,801.024 163.454,801.598 163.398,802.168 C163.322,802.92 163.254,803.662 163.19,804.396 C163.14,804.982 163.09,805.568 163.048,806.142 C163.012,806.634 162.982,807.114 162.952,807.598 C162.922,808.07 162.894,808.538 162.87,809.004 C162.846,809.49 162.822,809.97 162.804,810.448 C162.786,810.91 162.772,811.364 162.762,811.818 C162.75,812.274 162.734,812.734 162.728,813.182 C162.72,813.97 162.72,814.744 162.73,815.506 C162.736,815.942 162.754,816.366 162.768,816.794 C162.78,817.216 162.794,817.638 162.814,818.05 C162.836,818.478 162.862,818.896 162.89,819.312 C162.918,819.7 162.95,820.084 162.984,820.464 C163.02,820.868 163.056,821.272 163.1,821.666 C163.144,822.064 163.2,822.446 163.254,822.834 C163.334,823.424 163.426,823.998 163.528,824.556 C163.6,824.962 163.674,825.368 163.758,825.76 C163.832,826.1 163.916,826.43 164,826.76 C164.08,827.084 164.164,827.404 164.254,827.714 C164.346,828.036 164.442,828.352 164.544,828.662 C164.646,828.97 164.754,829.264 164.864,829.558 C164.972,829.842 165.074,830.13 165.19,830.402 C165.402,830.904 165.63,831.384 165.874,831.842 C165.754,834.904 168.004,836.948 172.056,837.74 C172.058,837.864 172.058,837.99 172.06,838.114 C172.09,839.704 172.16,841.486 172.266,843.432 L172.06,843.3 L172.398,845.598 C175.546,894.52 199.152,1036.076 208.246,1089.458 L236.254,1279.984 C228.194,1281.958 220.262,1285.636 215.116,1292.342 C211.664,1296.842 209.92,1300.402 209.138,1303.198 C209.138,1303.2 209.128,1303.204 209.128,1303.204 C203.14,1314.068 207.704,1318.582 207.704,1318.582 L265.456,1318.082 L323.208,1318.582 C323.208,1318.582 327.772,1314.068 321.784,1303.204 C321.784,1303.204 321.774,1303.2 321.774,1303.198 C320.994,1300.402 319.25,1296.842 315.796,1292.342 C310.652,1285.636 302.718,1281.958 294.66,1279.984 L325.396,1070.888 C336.016,1008.576 355.648,889.626 358.514,845.608 L358.85,843.3 L358.644,843.432 C358.752,841.486 358.824,839.704 358.852,838.114 C358.854,837.99 358.854,837.864 358.856,837.74 C362.91,836.948 365.158,834.904 365.038,831.844 C365.072,831.782 365.098,831.712 365.13,831.652 C365.336,831.254 365.534,830.844 365.718,830.412 C365.84,830.126 365.948,829.824 366.06,829.524 C366.164,829.248 366.266,828.968 366.362,828.68 C366.468,828.358 366.568,828.03 366.664,827.696 C366.75,827.4 366.828,827.096 366.906,826.788 C366.992,826.442 367.082,826.102 367.158,825.744 C367.232,825.406 367.292,825.05 367.358,824.7 C367.476,824.06 367.582,823.4 367.676,822.724 C367.72,822.38 367.768,822.042 367.81,821.692 C367.856,821.274 367.896,820.848 367.932,820.42 C367.964,820.066 367.994,819.71 368.018,819.348 C368.05,818.912 368.078,818.472 368.1,818.024 C368.118,817.646 368.13,817.26 368.142,816.874 C368.166,816.16 368.18,815.432 368.182,814.69 C368.184,814.2 368.19,813.712 368.182,813.212 C368.18,812.724 368.164,812.224 368.15,811.728 C368.138,811.318 368.126,810.906 368.11,810.49 C368.092,809.982 368.068,809.47 368.04,808.952 C368.018,808.53 367.994,808.104 367.966,807.678 C367.932,807.154 367.902,806.634 367.862,806.104 C367.828,805.634 367.784,805.152 367.746,804.674 C367.67,803.778 367.588,802.876 367.496,801.958 C367.444,801.472 367.398,800.988 367.344,800.496 C367.284,799.946 367.22,799.392 367.154,798.838 C367.098,798.356 367.038,797.874 366.978,797.39 C366.91,796.834 366.84,796.278 366.766,795.718 C366.696,795.204 366.624,794.684 366.552,794.166 C366.478,793.63 366.406,793.098 366.328,792.556 C366.186,791.592 366.038,790.62 365.886,789.642 C365.8,789.098 365.71,788.548 365.622,787.998 C365.532,787.444 365.442,786.89 365.35,786.334 C365.256,785.768 365.16,785.202 365.062,784.634 C364.966,784.078 364.868,783.518 364.768,782.958 C364.672,782.402 364.574,781.846 364.472,781.286 C364.35,780.614 364.226,779.938 364.1,779.264 C363.948,778.45 363.796,777.638 363.64,776.822 C363.512,776.142 363.38,775.462 363.25,774.782 C363.144,774.244 363.036,773.706 362.932,773.17 C362.808,772.548 362.684,771.928 362.56,771.306 C362.452,770.768 362.344,770.232 362.234,769.692 C362.1,769.024 361.96,768.358 361.824,767.69 C361.724,767.21 361.626,766.73 361.524,766.25 C361.3,765.168 361.074,764.088 360.846,763.006 L360.564,761.686 C360.408,760.96 360.254,760.234 360.098,759.51 C359.994,759.032 359.892,758.556 359.788,758.08 C359.622,757.308 359.456,756.538 359.288,755.768 C359.208,755.402 359.128,755.036 359.048,754.67 C358.802,753.542 358.556,752.418 358.312,751.298 C355.484,731.184 343.572,697.944 336.042,663.808 C334.942,658.822 333.872,653.826 332.838,648.864 C334.558,649.924 335.92,650.724 336.802,651.184 C343.83,654.86 357.77,660.056 370.258,655.044 C371.842,654.572 373.364,653.842 374.714,652.772 C374.758,652.746 374.8,652.726 374.844,652.698 L374.828,652.678 C378.504,649.688 380.786,644.064 378.914,633.59 C378.732,632.572 376.714,624.782 373.612,613.468 C375.848,599.036 354.884,588.614 393.538,572.622 C428.444,558.18 409.042,552.268 411.292,524.744 C413.546,497.222 461.94,513.746 461.94,412.42 C461.94,383.468 470.516,357.134 468.924,331.256 C469.372,331.084 469.608,330.932 469.608,330.932 C469.608,330.932 474.57,231.446 451.1,165.144 z" fill-opacity="0" stroke="#797979" stroke-width="16" stroke-linecap="round" stroke-linejoin="round"/>
      <path d="M461.94,412.42 C461.94,380.666 472.3,352.058 468.19,323.746 C461.254,289.688 437.098,257.262 419.96,233.964 C390.928,191.378 344.664,167.694 266.456,167.296 L266.456,167.276 C266.118,167.276 265.792,167.284 265.456,167.286 C265.12,167.284 264.794,167.276 264.456,167.276 L264.456,167.296 C186.25,167.694 139.986,191.378 110.952,233.964 C93.814,257.262 69.66,289.688 62.724,323.746 C58.614,352.058 68.97,380.666 68.97,412.42 C68.97,513.746 117.368,497.222 119.62,524.744 C121.872,552.268 102.468,558.18 137.374,572.622 C177.464,589.206 153.42,599.8 157.64,615.09 C162.232,631.718 216.39,650.076 208.012,661.676 C201.458,670.748 247.56,684.354 264.456,685.172 L264.456,685.212 C264.752,685.22 265.106,685.212 265.456,685.206 C265.806,685.212 266.162,685.22 266.456,685.212 L266.456,685.172 C283.352,684.354 329.456,670.748 322.902,661.676 C314.522,650.076 368.68,631.718 373.272,615.09 C377.494,599.8 353.45,589.206 393.538,572.622 C428.444,558.18 409.042,552.268 411.292,524.744 C413.546,497.222 461.94,513.746 461.94,412.42" fill="#AE9684"/>
      <path d="M461.94,412.42 C461.94,380.666 472.3,352.058 468.19,323.746 C461.254,289.688 437.098,257.262 419.96,233.964 C390.928,191.378 344.664,167.694 266.456,167.296 L266.456,167.276 C266.118,167.276 265.792,167.284 265.456,167.286 C265.12,167.284 264.794,167.276 264.456,167.276 L264.456,167.296 C186.25,167.694 139.986,191.378 110.952,233.964 C93.814,257.262 69.66,289.688 62.724,323.746 C58.614,352.058 68.97,380.666 68.97,412.42 C68.97,513.746 117.368,497.222 119.62,524.744 C121.872,552.268 102.468,558.18 137.374,572.622 C177.464,589.206 153.42,599.8 157.64,615.09 C162.232,631.718 216.39,650.076 208.012,661.676 C201.458,670.748 247.56,684.354 264.456,685.172 L264.456,685.212 C264.752,685.22 265.106,685.212 265.456,685.206 C265.806,685.212 266.162,685.22 266.456,685.212 L266.456,685.172 C283.352,684.354 329.456,670.748 322.902,661.676 C314.522,650.076 368.68,631.718 373.272,615.09 C377.494,599.8 353.45,589.206 393.538,572.622 C428.444,558.18 409.042,552.268 411.292,524.744 C413.546,497.222 461.94,513.746 461.94,412.42 z" fill-opacity="0" stroke="#797979" stroke-width="8" stroke-linecap="round" stroke-linejoin="round"/>
      <path d="M335.198,502.068 C327.446,497.864 306.904,496.284 290.124,495.71 L281.238,490.572 L278.516,461.812 L265.534,453.372 L252.554,461.812 L249.83,490.572 L240.942,495.712 C224.168,496.286 203.64,497.866 195.892,502.068 C195.206,502.44 193.05,507.04 193.05,507.04 C192.922,520.454 215.31,569.442 215.31,569.442 L315.78,569.442 C315.78,569.442 338.17,520.454 338.042,507.04 C338.042,507.04 335.886,502.44 335.198,502.068" fill="#FFEFD9"/>
      <path d="M335.198,502.068 C327.446,497.864 306.904,496.284 290.124,495.71 L281.238,490.572 L278.516,461.812 L265.534,453.372 L252.554,461.812 L249.83,490.572 L240.942,495.712 C224.168,496.286 203.64,497.866 195.892,502.068 C195.206,502.44 193.05,507.04 193.05,507.04 C192.922,520.454 215.31,569.442 215.31,569.442 L315.78,569.442 C315.78,569.442 338.17,520.454 338.042,507.04 C338.042,507.04 335.886,502.44 335.198,502.068 z" fill-opacity="0" stroke="#797979" stroke-width="8" stroke-linecap="round" stroke-linejoin="round"/>
      <path d="M335.106,502.068 C327.356,497.864 306.812,496.284 290.032,495.71 L281.146,490.572 L278.424,461.812 L265.442,453.372 L252.462,461.812 L249.74,490.572 L240.852,495.712 C224.076,496.286 203.548,497.866 195.802,502.068 C195.114,502.44 192.958,507.04 192.958,507.04 C192.83,520.454 215.22,569.442 215.22,569.442 L315.688,569.442 C315.688,569.442 338.08,520.454 337.95,507.04 C337.95,507.04 335.794,502.44 335.106,502.068" fill="#FFEFD9"/>
      <path d="M335.106,502.068 C327.356,497.864 306.812,496.284 290.032,495.71 L281.146,490.572 L278.424,461.812 L265.442,453.372 L252.462,461.812 L249.74,490.572 L240.852,495.712 C224.076,496.286 203.548,497.866 195.802,502.068 C195.114,502.44 192.958,507.04 192.958,507.04 C192.83,520.454 215.22,569.442 215.22,569.442 L315.688,569.442 C315.688,569.442 338.08,520.454 337.95,507.04 C337.95,507.04 335.794,502.44 335.106,502.068 z" fill-opacity="0" stroke="#797979" stroke-width="8" stroke-linecap="round" stroke-linejoin="round"/>
      <path d="M265.456,600.73 C285.788,600.752 306.15,552.558 305.546,537.724 C305.546,537.724 293.708,549.464 265.456,549.464 C237.204,549.464 225.542,537.724 225.542,537.724 C224.94,552.514 245.184,600.708 265.456,600.73" fill="#FFFFFF"/>
      <path d="M265.456,600.73 C285.788,600.752 306.15,552.558 305.546,537.724 C305.546,537.724 293.708,549.464 265.456,549.464 C237.204,549.464 225.542,537.724 225.542,537.724 C224.94,552.514 245.184,600.708 265.456,600.73 z" fill-opacity="0" stroke="#797979" stroke-width="8" stroke-linecap="round" stroke-linejoin="round"/>
      <path d="M213.342,619.474 L317.75,619.474 L321.466,553.87 L326.628,497.51 L314.912,497.556 L265.546,594.968 L216.18,497.556 L204.462,497.51 L209.628,553.87 z" fill="#E2F1C9"/>
      <path d="M213.342,619.474 L317.75,619.474 L321.466,553.87 L326.628,497.51 L314.912,497.556 L265.546,594.968 L216.18,497.556 L204.462,497.51 L209.628,553.87 L213.342,619.474 z" fill-opacity="0" stroke="#797979" stroke-width="8" stroke-linecap="round" stroke-linejoin="round"/>
      <path d="M214.922,558.974 L160.01,622.052 C160.01,622.052 151.672,629.868 140.436,624.678 C131.472,620.532 122.518,613.16 129.436,601.344 C173.318,534.3 190.312,505.116 195.802,502.068 L198.814,500.774" fill="#FFEFD9"/>
      <path d="M214.922,558.974 L160.01,622.052 C160.01,622.052 151.672,629.868 140.436,624.678 C131.472,620.532 122.518,613.16 129.436,601.344 C173.318,534.3 190.312,505.116 195.802,502.068 L198.814,500.774" fill-opacity="0" stroke="#797979" stroke-width="8" stroke-linecap="round" stroke-linejoin="round"/>
      <path d="M195.51,576.942 C195.51,576.942 162.764,635.7 144.956,635.7 C120.514,635.7 102.428,538.794 90.854,497.024 L119.208,484.574 L149.136,570.664" fill="#FFEFD9"/>
      <path d="M195.51,576.942 C195.51,576.942 162.764,635.7 144.956,635.7 C120.514,635.7 102.428,538.794 90.854,497.024 L119.208,484.574 L149.136,570.664" fill-opacity="0" stroke="#797979" stroke-width="8" stroke-linecap="round" stroke-linejoin="round"/>
      <path d="M318.648,555.832 L340.384,639.212 C340.384,639.212 347.216,655.884 363.908,655.884 C371.484,655.884 382.408,653.134 378.914,633.59 C378.156,629.352 345.64,507.918 335.106,502.068 L332.808,501.032" fill="#FFEFD9"/>
      <path d="M318.648,555.832 L340.384,639.212 C340.384,639.212 347.216,655.884 363.908,655.884 C371.484,655.884 382.408,653.134 378.914,633.59 C378.156,629.352 345.64,507.918 335.106,502.068 L332.808,501.032" fill-opacity="0" stroke="#797979" stroke-width="8" stroke-linecap="round" stroke-linejoin="round"/>
      <path d="M320.78,497.51 C320.78,497.51 342.254,491.718 348.008,501.574 C362.256,525.98 380.99,558.276 380.99,558.276 L321.854,604.474 L309.948,559.54" fill="#E2F1C9"/>
      <path d="M320.78,497.51 C320.78,497.51 342.254,491.718 348.008,501.574 C362.256,525.98 380.99,558.276 380.99,558.276 L321.854,604.474 L309.948,559.54" fill-opacity="0" stroke="#797979" stroke-width="8" stroke-linecap="round" stroke-linejoin="round"/>
      <path d="M210.134,497.51 C210.134,497.51 188.66,491.718 182.906,501.574 C168.658,525.98 149.924,558.276 149.924,558.276 L209.058,604.474 L220.966,559.54" fill="#E2F1C9"/>
      <path d="M210.134,497.51 C210.134,497.51 188.66,491.718 182.906,501.574 C168.658,525.98 149.924,558.276 149.924,558.276 L209.058,604.474 L220.966,559.54" fill-opacity="0" stroke="#797979" stroke-width="8" stroke-linecap="round" stroke-linejoin="round"/>
      <path d="M349.868,754.95 L265.456,753.474 L181.044,754.95 C181.044,754.95 171.168,789.106 172.06,838.114 C172.954,887.122 211.802,1110.162 211.802,1110.162 L258.296,1110.162 L249.72,886.992 L265.456,886.992 L281.192,886.992 L272.118,1110.162 L318.61,1110.162 C318.61,1110.162 357.96,887.122 358.852,838.114 C359.746,789.106 349.868,754.95 349.868,754.95" fill="#797979"/>
      <path d="M349.868,754.95 L265.456,753.474 L181.044,754.95 C181.044,754.95 171.168,789.106 172.06,838.114 C172.954,887.122 211.802,1110.162 211.802,1110.162 L258.296,1110.162 L249.72,886.992 L265.456,886.992 L281.192,886.992 L272.118,1110.162 L318.61,1110.162 C318.61,1110.162 357.96,887.122 358.852,838.114 C359.746,789.106 349.868,754.95 349.868,754.95 z" fill-opacity="0" stroke="#797979" stroke-width="8" stroke-linecap="round" stroke-linejoin="round"/>
      <path d="M358.312,751.298 C355.484,731.184 343.572,697.944 336.042,663.808 C324.048,609.424 315.616,553.87 315.616,553.87 L294.336,553.87 L265.456,606.472 L236.578,553.87 L215.296,553.87 C215.296,553.87 206.866,609.424 194.872,663.808 C187.342,697.944 175.43,731.184 172.602,751.298 C165.724,782.646 158.378,817.81 165.874,831.842 C165.718,835.83 169.552,838.114 176.204,838.114 L354.708,838.114 C361.36,838.114 365.194,835.83 365.038,831.842 C372.534,817.81 365.188,782.646 358.312,751.298" fill="#E2F1C9"/>
      <path d="M215.296,553.87 C215.296,553.87 206.866,609.424 194.872,663.808 C187.342,697.944 175.43,731.184 172.602,751.298 C163.77,791.552 154.158,838.114 176.204,838.114 L205.204,838.114 L336.704,838.114 L354.708,838.114 C376.756,838.114 367.144,791.552 358.312,751.298 C355.484,731.184 343.572,697.944 336.042,663.808 C324.048,609.424 315.616,553.87 315.616,553.87" fill-opacity="0" stroke="#797979" stroke-width="8" stroke-linecap="round" stroke-linejoin="round"/>
      <path d="M230.884,496.424 C230.884,496.424 214.502,689.224 263.17,705.974" fill-opacity="0" stroke="#797979" stroke-width="8" stroke-linecap="round" stroke-linejoin="round"/>
      <path d="M248.53,673.738 C248.53,678.398 244.754,682.176 240.094,682.176 C235.432,682.176 231.656,678.398 231.656,673.738 C231.656,669.078 235.432,665.3 240.094,665.3 C244.754,665.3 248.53,669.078 248.53,673.738" fill="#FFFFFF"/>
      <path d="M248.53,673.738 C248.53,678.398 244.754,682.176 240.094,682.176 C235.432,682.176 231.656,678.398 231.656,673.738 C231.656,669.078 235.432,665.3 240.094,665.3 C244.754,665.3 248.53,669.078 248.53,673.738 z" fill-opacity="0" stroke="#797979" stroke-width="8" stroke-linecap="round" stroke-linejoin="round"/>
      <path d="M238.328,630.264 C238.328,634.924 234.552,638.7 229.892,638.7 C225.23,638.7 221.454,634.924 221.454,630.264 C221.454,625.602 225.23,621.826 229.892,621.826 C234.552,621.826 238.328,625.602 238.328,630.264" fill="#FFFFFF"/>
      <path d="M238.328,630.264 C238.328,634.924 234.552,638.7 229.892,638.7 C225.23,638.7 221.454,634.924 221.454,630.264 C221.454,625.602 225.23,621.826 229.892,621.826 C234.552,621.826 238.328,625.602 238.328,630.264 z" fill-opacity="0" stroke="#797979" stroke-width="8" stroke-linecap="round" stroke-linejoin="round"/>
      <path d="M236.766,587.572 C236.766,592.232 232.988,596.01 228.328,596.01 C223.668,596.01 219.89,592.232 219.89,587.572 C219.89,582.912 223.668,579.134 228.328,579.134 C232.988,579.134 236.766,582.912 236.766,587.572" fill="#FFFFFF"/>
      <path d="M236.766,587.572 C236.766,592.232 232.988,596.01 228.328,596.01 C223.668,596.01 219.89,592.232 219.89,587.572 C219.89,582.912 223.668,579.134 228.328,579.134 C232.988,579.134 236.766,582.912 236.766,587.572 z" fill-opacity="0" stroke="#797979" stroke-width="8" stroke-linecap="round" stroke-linejoin="round"/>
      <path d="M300.028,496.424 C300.028,496.424 316.412,689.224 267.746,705.974" fill-opacity="0" stroke="#797979" stroke-width="8" stroke-linecap="round" stroke-linejoin="round"/>
      <path d="M281.21,673.738 C281.21,678.398 284.988,682.176 289.648,682.176 C294.308,682.176 298.086,678.398 298.086,673.738 C298.086,669.078 294.308,665.3 289.648,665.3 C284.988,665.3 281.21,669.078 281.21,673.738" fill="#FFFFFF"/>
      <path d="M281.21,673.738 C281.21,678.398 284.988,682.176 289.648,682.176 C294.308,682.176 298.086,678.398 298.086,673.738 C298.086,669.078 294.308,665.3 289.648,665.3 C284.988,665.3 281.21,669.078 281.21,673.738 z" fill-opacity="0" stroke="#797979" stroke-width="8" stroke-linecap="round" stroke-linejoin="round"/>
      <path d="M291.414,630.264 C291.414,634.924 295.188,638.7 299.85,638.7 C304.512,638.7 308.286,634.924 308.286,630.264 C308.286,625.602 304.512,621.826 299.85,621.826 C295.188,621.826 291.414,625.602 291.414,630.264" fill="#FFFFFF"/>
      <path d="M291.414,630.264 C291.414,634.924 295.188,638.7 299.85,638.7 C304.512,638.7 308.286,634.924 308.286,630.264 C308.286,625.602 304.512,621.826 299.85,621.826 C295.188,621.826 291.414,625.602 291.414,630.264 z" fill-opacity="0" stroke="#797979" stroke-width="8" stroke-linecap="round" stroke-linejoin="round"/>
      <path d="M292.976,587.572 C292.976,592.232 296.754,596.01 301.414,596.01 C306.074,596.01 309.85,592.232 309.85,587.572 C309.85,582.912 306.074,579.134 301.414,579.134 C296.754,579.134 292.976,582.912 292.976,587.572" fill="#FFFFFF"/>
      <path d="M292.976,587.572 C292.976,592.232 296.754,596.01 301.414,596.01 C306.074,596.01 309.85,592.232 309.85,587.572 C309.85,582.912 306.074,579.134 301.414,579.134 C296.754,579.134 292.976,582.912 292.976,587.572 z" fill-opacity="0" stroke="#797979" stroke-width="8" stroke-linecap="round" stroke-linejoin="round"/>
      <path d="M273.308,704.842 C273.308,709.502 269.53,713.278 264.87,713.278 C260.21,713.278 256.432,709.502 256.432,704.842 C256.432,700.182 260.21,696.404 264.87,696.404 C269.53,696.404 273.308,700.182 273.308,704.842" fill="#FFFFFF"/>
      <path d="M273.308,704.842 C273.308,709.502 269.53,713.278 264.87,713.278 C260.21,713.278 256.432,709.502 256.432,704.842 C256.432,700.182 260.21,696.404 264.87,696.404 C269.53,696.404 273.308,700.182 273.308,704.842 z" fill-opacity="0" stroke="#797979" stroke-width="8" stroke-linecap="round" stroke-linejoin="round"/>
      <path d="M265.02,478.712 C23.502,478.712 46.868,84.818 265.02,84.818 C483.174,84.818 506.54,478.712 265.02,478.712" fill="#FFEFD9"/>
      <path d="M265.02,478.712 C23.502,478.712 46.868,84.818 265.02,84.818 C483.174,84.818 506.54,478.712 265.02,478.712 z" fill-opacity="0" stroke="#797979" stroke-width="8" stroke-linecap="round" stroke-linejoin="round"/>
      <path d="M122.802,283.578 C122.802,283.578 66.516,271.962 66.516,322.848 C66.516,352.782 85.896,366.374 125.732,366.944" fill="#FFEFD9"/>
      <path d="M122.802,283.578 C122.802,283.578 66.516,271.962 66.516,322.848 C66.516,352.782 85.896,366.374 125.732,366.944" fill-opacity="0" stroke="#797979" stroke-width="8" stroke-linecap="round" stroke-linejoin="round"/>
      <path d="M87.966,325.602 C87.966,325.602 95.346,322.196 102.376,322.24" fill="#FFEFD9"/>
      <path d="M87.966,325.602 C87.966,325.602 95.346,322.196 102.376,322.24" fill-opacity="0" stroke="#797979" stroke-width="8" stroke-linecap="round" stroke-linejoin="round"/>
      <path d="M407.242,283.578 C407.242,283.578 463.526,271.962 463.526,322.848 C463.526,352.782 444.148,366.374 404.312,366.944" fill="#FFEFD9"/>
      <path d="M407.242,283.578 C407.242,283.578 463.526,271.962 463.526,322.848 C463.526,352.782 444.148,366.374 404.312,366.944" fill-opacity="0" stroke="#797979" stroke-width="8" stroke-linecap="round" stroke-linejoin="round"/>
      <path d="M442.078,325.602 C442.078,325.602 434.698,322.196 427.668,322.24" fill="#FFEFD9"/>
      <path d="M442.078,325.602 C442.078,325.602 434.698,322.196 427.668,322.24" fill-opacity="0" stroke="#797979" stroke-width="8" stroke-linecap="round" stroke-linejoin="round"/>
      <path d="M265.02,481.516 C23.502,481.516 46.868,87.624 265.02,87.624 C483.176,87.624 506.542,481.516 265.02,481.516" fill="#FFEFD9"/>
      <path d="M265.02,481.516 C23.502,481.516 46.868,87.624 265.02,87.624 C483.176,87.624 506.542,481.516 265.02,481.516 z" fill-opacity="0" stroke="#797979" stroke-width="8" stroke-linecap="round" stroke-linejoin="round"/>
      <path d="M451.1,165.144 C426.1,94.512 361.082,34.51 332.482,46.5 C286.62,12.886 231.172,18.934 179.794,46.722 C128.414,74.51 100.294,107.276 79.812,165.144 C62.562,213.874 60.672,280.528 60.88,312.438 C60.798,322.248 61.16,327.818 61.178,327.816 C61.248,329.834 61.304,335.908 61.304,335.908 C61.304,335.908 85.434,335.854 153.712,218.572 C223.606,98.512 321.144,105.51 321.144,105.51 C321.144,105.51 388.522,132.988 416.726,239.85 C444.932,346.714 469.608,330.932 469.608,330.932 C469.608,330.932 474.57,231.446 451.1,165.144" fill="#AE9684"/>
      <path d="M451.1,165.144 C426.1,94.512 361.082,34.51 332.482,46.5 C286.62,12.886 231.172,18.934 179.794,46.722 C128.414,74.51 100.294,107.276 79.812,165.144 C62.562,213.874 60.672,280.528 60.88,312.438 C60.798,322.248 61.16,327.818 61.178,327.816 C61.248,329.834 61.304,335.908 61.304,335.908 C61.304,335.908 85.434,335.854 153.712,218.572 C223.606,98.512 321.144,105.51 321.144,105.51 C321.144,105.51 388.522,132.988 416.726,239.85 C444.932,346.714 469.608,330.932 469.608,330.932 C469.608,330.932 474.57,231.446 451.1,165.144 z" fill-opacity="0" stroke="#797979" stroke-width="8" stroke-linecap="round" stroke-linejoin="round"/>
      <path d="M257.184,357.67 C257.184,357.67 254.516,369.67 265.02,369.004" fill-opacity="0" stroke="#797979" stroke-width="8" stroke-linecap="round" stroke-linejoin="round"/>
      <path d="M265.02,400.478 C233.884,400.478 217.852,395.404 217.852,395.404 C224.97,420.072 251.524,437.802 265.02,437.802 C278.516,437.802 305.074,420.072 312.19,395.404 C312.19,395.404 296.16,400.478 265.02,400.478" fill="#F4ACA6"/>
      <path d="M265.02,400.478 C233.884,400.478 217.852,395.404 217.852,395.404 C224.97,420.072 251.524,437.802 265.02,437.802 C278.516,437.802 305.074,420.072 312.19,395.404 C312.19,395.404 296.16,400.478 265.02,400.478 z" fill-opacity="0" stroke="#797979" stroke-width="8" stroke-linecap="round" stroke-linejoin="round"/>
      <path d="M319.586,208.138 C319.586,208.138 325.762,198.138 340.186,198.138 C350.562,198.138 361.186,211.138 361.186,211.138" fill-opacity="0" stroke="#797979" stroke-width="8" stroke-linecap="round" stroke-linejoin="round"/>
      <path d="M348.848,291.168 C348.848,306.422 343.772,318.786 337.512,318.786 C331.25,318.786 326.176,306.422 326.176,291.168 C326.176,275.914 331.25,263.548 337.512,263.548 C343.772,263.548 348.848,275.914 348.848,291.168" fill="#797979"/>
      <path d="M181.196,291.168 C181.196,306.422 186.27,318.786 192.532,318.786 C198.794,318.786 203.868,306.422 203.868,291.168 C203.868,275.914 198.794,263.548 192.532,263.548 C186.27,263.548 181.196,275.914 181.196,291.168" fill="#797979"/>
      <path d="M210.458,208.138 C210.458,208.138 204.282,198.138 189.856,198.138 C179.482,198.138 168.856,211.138 168.856,211.138" fill-opacity="0" stroke="#797979" stroke-width="8" stroke-linecap="round" stroke-linejoin="round"/>
      <path d="M210.25,499.732 L178.89,440.776 C176.176,435.68 169.154,434.112 163.204,437.28 L148.476,445.112 C139.024,429.95 129.174,412.89 119.438,394.594 C109.766,376.408 101.168,358.806 93.906,342.574 L108.658,334.73 C114.61,331.564 117.236,324.866 114.518,319.772 L83.164,260.816 C80.446,255.72 73.428,254.156 67.476,257.324 L45.028,269.26 C43.67,269.982 42.496,270.896 41.508,271.926 C41.27,271.996 41.018,272.036 40.802,272.152 C29.754,278.028 40.18,346.036 77.792,416.746 C115.408,487.462 165.974,534.11 177.018,528.236 C177.058,528.214 177.088,528.174 177.128,528.15 C178.74,527.95 180.376,527.464 181.94,526.632 L204.386,514.696 C210.34,511.524 212.962,504.83 210.25,499.732" fill="#FFFCC9"/>
      <path d="M210.25,499.732 L178.89,440.776 C176.176,435.68 169.154,434.112 163.204,437.28 L148.476,445.112 C139.024,429.95 129.174,412.89 119.438,394.594 C109.766,376.408 101.168,358.806 93.906,342.574 L108.658,334.73 C114.61,331.564 117.236,324.866 114.518,319.772 L83.164,260.816 C80.446,255.72 73.428,254.156 67.476,257.324 L45.028,269.26 C43.67,269.982 42.496,270.896 41.508,271.926 C41.27,271.996 41.018,272.036 40.802,272.152 C29.754,278.028 40.18,346.036 77.792,416.746 C115.408,487.462 165.974,534.11 177.018,528.236 C177.058,528.214 177.088,528.174 177.128,528.15 C178.74,527.95 180.376,527.464 181.94,526.632 L204.386,514.696 C210.34,511.524 212.962,504.83 210.25,499.732 z" fill-opacity="0" stroke="#797979" stroke-width="8" stroke-linecap="round" stroke-linejoin="round"/>
      <path d="M123.494,508.808 C125.874,506.228 128.314,502.718 130.35,497.97 C138.092,479.924 115.366,443.71 115.366,443.71 C115.366,443.71 111.778,432.512 108.422,414.804 C105.074,397.106 96.216,376.362 79.164,380.086 C54.506,385.462 50.338,417.098 56.854,440.264 C63.378,463.42 64.846,485.844 85.774,504.996 C89.52,508.424 92.896,510.894 95.894,512.652" fill="#FFEFD9"/>
      <path d="M123.494,508.808 C125.874,506.228 128.314,502.718 130.35,497.97 C138.092,479.924 115.366,443.71 115.366,443.71 C115.366,443.71 111.778,432.512 108.422,414.804 C105.074,397.106 96.216,376.362 79.164,380.086 C54.506,385.462 50.338,417.098 56.854,440.264 C63.378,463.42 64.846,485.844 85.774,504.996 C89.52,508.424 92.896,510.894 95.894,512.652" fill-opacity="0" stroke="#797979" stroke-width="8" stroke-linecap="round" stroke-linejoin="round"/>
      <path d="M99.492,390.264 C99.492,390.264 91.91,396.884 89.38,408.96 C86.852,421.032 88.864,435.582 88.864,435.582" fill="#FFEFD9"/>
      <path d="M99.492,390.264 C99.492,390.264 91.91,396.884 89.38,408.96 C86.852,421.032 88.864,435.582 88.864,435.582" fill-opacity="0" stroke="#797979" stroke-width="8" stroke-linecap="round" stroke-linejoin="round"/>
      <path d="M83.422,379.668 C83.422,379.668 71.514,387.65 69.83,403.55 C68.388,417.14 67.982,421.32 67.982,421.32" fill="#FFEFD9"/>
      <path d="M83.422,379.668 C83.422,379.668 71.514,387.65 69.83,403.55 C68.388,417.14 67.982,421.32 67.982,421.32" fill-opacity="0" stroke="#797979" stroke-width="8" stroke-linecap="round" stroke-linejoin="round"/>
      <path d="M343.526,607.054 L276.714,578.986 L270.966,573.808 C272.446,570.288 274.63,567.536 275.012,563.1 C276.85,541.71 267.246,513.9 254.496,514.91 C242.842,515.834 253.158,532.398 253.158,532.398 C253.158,532.398 220.126,481.256 200.408,500.94 C187.352,513.972 202.932,557.024 224.932,577.416 C234.848,586.598 243.952,589.05 243.952,589.05 L252.218,593.986 C274.49,610.26 328.068,646.616 336.802,651.184 C344.704,655.318 361.356,661.41 374.844,652.698" fill="#FFEFD9"/>
      <path d="M343.526,607.054 L276.714,578.986 L270.966,573.808 C272.446,570.288 274.63,567.536 275.012,563.1 C276.85,541.71 267.246,513.9 254.496,514.91 C242.842,515.834 253.158,532.398 253.158,532.398 C253.158,532.398 220.126,481.256 200.408,500.94 C187.352,513.972 202.932,557.024 224.932,577.416 C234.848,586.598 243.952,589.05 243.952,589.05 L252.218,593.986 C274.49,610.26 328.068,646.616 336.802,651.184 C344.704,655.318 361.356,661.41 374.844,652.698" fill-opacity="0" stroke="#797979" stroke-width="8" stroke-linecap="round" stroke-linejoin="round"/>
    </g>
  </g>
</svg>
