<?xml version="1.0" encoding="UTF-8"?>
<svg width="52px" height="52px" viewBox="0 0 52 52" version="1.1" xmlns="http://www.w3.org/2000/svg" xmlns:xlink="http://www.w3.org/1999/xlink">
    <title>person</title>
    <g id="Page-1" stroke="none" stroke-width="1" fill="none" fill-rule="evenodd">
        <g id="person" transform="translate(1.000000, 1.000000)">
            <polygon id="Path" points="3 1 27 1 27 25 3 25"></polygon>
            <circle id="Oval" stroke="#DBDBDB" fill="#FFFFFF" cx="25" cy="25" r="25"></circle>
            <path d="M39.0014937,14.9933034 C37.2473171,13.2464207 33.7866585,13.8639119 31.2712237,16.3721613 L25.1675314,22.4581549 C23.8076724,23.8137955 22.1883367,25.3340893 20.6858017,25.5 C19.4089831,25.640987 18.210239,24.6029364 17.393283,23.788231 C15.6155687,22.0147962 12.7526434,21.9962714 10.9984667,23.7450066 C9.24429006,25.4937418 9.86184448,28.9449003 12.3772793,31.4519147 L16.0510158,35.1154902 C18.5658312,37.6237396 22.6496189,37.6299145 25.1662925,35.1235176 C28.8332155,31.4698219 33.9600941,26.3551421 37.6251588,22.698359 C40.1387354,20.1894921 40.755051,16.7395686 39.0014937,14.9933034 Z" id="Path" fill="#006EE6" fill-rule="nonzero"></path>
        </g>
    </g>
</svg>
