<?xml version="1.0" encoding="UTF-8"?>
<!DOCTYPE svg PUBLIC "-//W3C//DTD SVG 1.1//EN" "http://www.w3.org/Graphics/SVG/1.1/DTD/svg11.dtd">
<svg version="1.1" xmlns="http://www.w3.org/2000/svg" xmlns:xlink="http://www.w3.org/1999/xlink" x="0" y="0" width="371.339" height="382.677" viewBox="0, 0, 371.339, 382.677">
  <defs>
    <clipPath id="Clip_1">
      <path d="M351.923,6.682 L351.923,382.677 L27.94,382.677 L27.94,6.682 L351.923,6.682 z"/>
    </clipPath>
  </defs>
  <g id="Layer_1">
    <g clip-path="url(#Clip_1)">
      <path d="M102.74,97.56 C102.74,97.56 85.557,70.816 74.101,69.179 C62.646,67.541 64.207,79.003 68.894,81.732 C73.58,84.46 80.871,87.736 80.871,87.736" fill="#A6DBE6"/>
      <path d="M97.796,113.745 C97.796,113.745 75.926,102.284 66.553,103.376 C57.18,104.468 58.742,113.745 63.429,115.929 C68.115,118.113 78.009,117.021 78.009,117.021" fill="#A6DBE6"/>
      <path d="M113.084,74.432 C113.084,74.432 105.533,50.144 96.941,44.413 C91.934,41.073 84.123,47.673 90.016,55.624 C93.673,60.558 99.024,63.516 99.024,63.516" fill="#A6DBE6"/>
      <path d="M274.092,333.396 L273.957,331.191 C274.271,331.967 274.584,332.731 274.894,333.483 C274.632,333.45 274.361,333.424 274.092,333.396 M228.6,402.897 C228.779,395.461 228.787,389.75 228.788,389.262 L228.788,401.817 C228.788,401.817 228.788,402.214 228.793,402.897 z M320.09,371.63 L276.441,371.63 L276.385,370.713 L285.42,370.713 C286.561,370.713 287.484,369.789 287.484,368.649 L287.484,361.226 C287.484,360.084 286.561,359.159 285.42,359.159 L276.809,359.159 C278.346,358.492 279.792,357.701 281.096,356.765 C281.096,356.765 287.192,359.417 291.146,356.425 C300.095,359.483 308.729,351.416 307.342,342.834 C305.378,330.692 281.337,259.736 277.781,257.807 C270.788,254.013 241.658,247.69 241.658,247.69 L242.055,248.708 L236.871,245.823 C236.871,245.823 236.787,246.168 236.609,246.745 L236.079,241.138 C275.333,233.012 295.809,203.729 301.115,170.02 C312.589,165.997 317.53,158.634 316.082,147.127 C314.563,135.063 307.561,130.891 300.66,129.815 C300.526,129.029 300.385,128.243 300.236,127.459 C303.368,128.616 305.12,129.248 305.12,129.248 C305.12,129.248 299.621,72.137 284.014,48.719 C276.032,36.744 259.037,32.852 259.037,32.852 L262.653,24.745 C257.7,26.202 247.897,24.103 240.365,22.55 C232.833,20.999 215.811,24.809 215.811,24.809 L215.29,15.708 C210.131,21.358 168.59,26.949 156.021,35.198 C143.45,43.444 143.361,48.568 143.361,48.568 C138.771,51.456 129.182,58.487 125.614,68.656 C116.296,95.212 125.122,151.905 125.122,151.905 C125.122,151.905 126.75,151.019 129.642,149.41 C129.685,150.048 129.729,150.686 129.781,151.323 C123.364,154.076 117.613,159.854 119.131,171.918 C120.578,183.415 127.201,189.305 139.295,190.364 C152.939,222.074 180.505,245.547 221.311,243.089 L220.908,247.344 C220.594,246.405 220.453,245.823 220.453,245.823 L215.592,248.53 L215.918,247.69 C215.918,247.69 203.607,250.363 193.07,253.276 C192.076,252.308 190.75,251.672 189.479,251.672 L47.282,251.672 C45.215,251.672 44.089,253.347 44.769,255.414 L78.166,357.197 C78.845,359.264 81.069,360.939 83.136,360.939 L83.789,360.939 C83.775,361.033 83.76,361.127 83.76,361.226 L83.76,368.649 C83.76,369.789 84.684,370.713 85.824,370.713 L181.193,370.713 L181.137,371.63 L53.09,371.63 L53.09,388.465 L180.102,388.465 L179.216,402.881 C167.563,402.778 135.385,402.37 120.753,407.831 C118.826,408.55 117.806,410.018 117.181,410.929 C111.691,418.929 130.299,562.101 130.299,562.101 L152.466,562.435 L157.908,441.573 C157.908,441.573 160.221,441.66 164.014,441.791 C167.254,486.145 177.125,562.101 177.125,562.101 L199.292,562.435 L204.677,442.846 C216.371,443.012 226.619,442.969 230.191,442.434 C230.252,442.425 230.313,442.406 230.374,442.393 C248.795,442.892 271.338,443.285 277.018,442.434 C277.602,442.346 278.207,442.081 278.817,441.673 C280.435,440.221 281.109,436.823 281.236,432.622 C281.877,432.542 282.232,432.495 282.232,432.495 L280.565,389.228 L277.523,389.228 L277.477,388.465 L320.09,388.465 C321.747,388.465 323.09,387.122 323.09,385.465 L323.09,374.63 C323.09,372.973 321.747,371.63 320.09,371.63 M169.991,569.453 C163.351,575.69 167.444,577.689 167.444,577.689 L199.292,577.689 L199.292,563.606 C199.292,563.606 178.336,561.615 169.991,569.453 M122.491,569.453 C115.851,575.69 119.944,577.689 119.944,577.689 L151.792,577.689 L151.792,563.606 C151.792,563.606 130.836,561.615 122.491,569.453" fill="#666666"/>
      <path d="M274.092,333.396 L273.957,331.191 C274.271,331.967 274.584,332.731 274.894,333.483 C274.632,333.45 274.361,333.424 274.092,333.396 z M228.6,402.897 C228.779,395.461 228.787,389.75 228.788,389.262 L228.788,401.817 C228.788,401.817 228.788,402.214 228.793,402.897 L228.6,402.897 z M320.09,371.63 L276.441,371.63 L276.385,370.713 L285.42,370.713 C286.561,370.713 287.484,369.789 287.484,368.649 L287.484,361.226 C287.484,360.084 286.561,359.159 285.42,359.159 L276.809,359.159 C278.346,358.492 279.792,357.701 281.096,356.765 C281.096,356.765 287.192,359.417 291.146,356.425 C300.095,359.483 308.729,351.416 307.342,342.834 C305.378,330.692 281.337,259.736 277.781,257.807 C270.788,254.013 241.658,247.69 241.658,247.69 L242.055,248.708 L236.871,245.823 C236.871,245.823 236.787,246.168 236.609,246.745 L236.079,241.138 C275.333,233.012 295.809,203.729 301.115,170.02 C312.589,165.997 317.53,158.634 316.082,147.127 C314.563,135.063 307.561,130.891 300.66,129.815 C300.526,129.029 300.385,128.243 300.236,127.459 C303.368,128.616 305.12,129.248 305.12,129.248 C305.12,129.248 299.621,72.137 284.014,48.719 C276.032,36.744 259.037,32.852 259.037,32.852 L262.653,24.745 C257.7,26.202 247.897,24.103 240.365,22.55 C232.833,20.999 215.811,24.809 215.811,24.809 L215.29,15.708 C210.131,21.358 168.59,26.949 156.021,35.198 C143.45,43.444 143.361,48.568 143.361,48.568 C138.771,51.456 129.182,58.487 125.614,68.656 C116.296,95.212 125.122,151.905 125.122,151.905 C125.122,151.905 126.75,151.019 129.642,149.41 C129.685,150.048 129.729,150.686 129.781,151.323 C123.364,154.076 117.613,159.854 119.131,171.918 C120.578,183.415 127.201,189.305 139.295,190.364 C152.939,222.074 180.505,245.547 221.311,243.089 L220.908,247.344 C220.594,246.405 220.453,245.823 220.453,245.823 L215.592,248.53 L215.918,247.69 C215.918,247.69 203.607,250.363 193.07,253.276 C192.076,252.308 190.75,251.672 189.479,251.672 L47.282,251.672 C45.215,251.672 44.089,253.347 44.769,255.414 L78.166,357.197 C78.845,359.264 81.069,360.939 83.136,360.939 L83.789,360.939 C83.775,361.033 83.76,361.127 83.76,361.226 L83.76,368.649 C83.76,369.789 84.684,370.713 85.824,370.713 L181.193,370.713 L181.137,371.63 L53.09,371.63 L53.09,388.465 L180.102,388.465 L179.216,402.881 C167.563,402.778 135.385,402.37 120.753,407.831 C118.826,408.55 117.806,410.018 117.181,410.929 C111.691,418.929 130.299,562.101 130.299,562.101 L152.466,562.435 L157.908,441.573 C157.908,441.573 160.221,441.66 164.014,441.791 C167.254,486.145 177.125,562.101 177.125,562.101 L199.292,562.435 L204.677,442.846 C216.371,443.012 226.619,442.969 230.191,442.434 C230.252,442.425 230.313,442.406 230.374,442.393 C248.795,442.892 271.338,443.285 277.018,442.434 C277.602,442.346 278.207,442.081 278.817,441.673 C280.435,440.221 281.109,436.823 281.236,432.622 C281.877,432.542 282.232,432.495 282.232,432.495 L280.565,389.228 L277.523,389.228 L277.477,388.465 L320.09,388.465 C321.747,388.465 323.09,387.122 323.09,385.465 L323.09,374.63 C323.09,372.973 321.747,371.63 320.09,371.63 z M169.991,569.453 C163.351,575.69 167.444,577.689 167.444,577.689 L199.292,577.689 L199.292,563.606 C199.292,563.606 178.336,561.615 169.991,569.453 z M122.491,569.453 C115.851,575.69 119.944,577.689 119.944,577.689 L151.792,577.689 L151.792,563.606 C151.792,563.606 130.836,561.615 122.491,569.453 z" fill-opacity="0" stroke="#666666" stroke-width="8" stroke-linecap="round" stroke-linejoin="round"/>
      <path d="M236.745,248.174 L235.276,232.657 L228.788,228.438 L222.298,232.657 L220.829,248.174 L209.586,250.662 C209.586,250.662 207.661,259.6 228.788,259.6 C249.913,259.6 247.989,250.662 247.989,250.662 z" fill="#FFECD0"/>
      <path d="M236.745,248.174 L235.276,232.657 L228.788,228.438 L222.298,232.657 L220.829,248.174 L209.586,250.662 C209.586,250.662 207.661,259.6 228.788,259.6 C249.913,259.6 247.989,250.662 247.989,250.662 L236.745,248.174 z" fill-opacity="0" stroke="#666666" stroke-width="4" stroke-linecap="round" stroke-linejoin="round"/>
      <path d="M284.014,48.719 C276.032,36.744 259.037,32.852 259.037,32.852 L262.653,24.745 C257.7,26.202 247.897,24.103 240.365,22.55 C232.833,20.999 215.811,24.809 215.811,24.809 L215.29,15.708 C210.131,21.358 168.59,26.949 156.021,35.198 C143.45,43.444 143.361,48.568 143.361,48.568 C138.771,51.456 129.182,58.487 125.614,68.656 C116.296,95.212 125.122,151.905 125.122,151.905 C125.122,151.905 126.75,151.019 129.642,149.41 C126.359,100.404 150.173,49.231 202.89,42.596 C255.436,35.981 291.13,79.356 300.236,127.459 C303.368,128.616 305.12,129.248 305.12,129.248 C305.12,129.248 299.621,72.137 284.014,48.719" fill="#8A7763"/>
      <path d="M284.014,48.719 C276.032,36.744 259.037,32.852 259.037,32.852 L262.653,24.745 C257.7,26.202 247.897,24.103 240.365,22.55 C232.833,20.999 215.811,24.809 215.811,24.809 L215.29,15.708 C210.131,21.358 168.59,26.949 156.021,35.198 C143.45,43.444 143.361,48.568 143.361,48.568 C138.771,51.456 129.182,58.487 125.614,68.656 C116.296,95.212 125.122,151.905 125.122,151.905 C125.122,151.905 126.75,151.019 129.642,149.41 C126.359,100.404 150.173,49.231 202.89,42.596 C255.436,35.981 291.13,79.356 300.236,127.459 C303.368,128.616 305.12,129.248 305.12,129.248 C305.12,129.248 299.621,72.137 284.014,48.719 z" fill-opacity="0" stroke="#666666" stroke-width="4" stroke-linecap="round" stroke-linejoin="round"/>
      <path d="M144.602,148.921 C144.602,148.921 115.954,146.673 119.131,171.918 C121.001,186.768 131.462,192.3 151.26,190.095" fill="#FFECD0"/>
      <path d="M144.602,148.921 C144.602,148.921 115.954,146.673 119.131,171.918 C121.001,186.768 131.462,192.3 151.26,190.095" fill-opacity="0" stroke="#666666" stroke-width="4" stroke-linecap="round" stroke-linejoin="round"/>
      <path d="M129.944,171.944 C129.944,171.944 133.391,169.794 136.882,169.376" fill="#FFECD0"/>
      <path d="M129.944,171.944 C129.944,171.944 133.391,169.794 136.882,169.376" fill-opacity="0" stroke="#666666" stroke-width="4" stroke-linecap="round" stroke-linejoin="round"/>
      <path d="M285.708,131.16 C285.708,131.16 312.904,121.883 316.082,147.127 C317.951,161.977 309.187,169.93 289.461,172.7" fill="#FFECD0"/>
      <path d="M285.708,131.16 C285.708,131.16 312.904,121.883 316.082,147.127 C317.951,161.977 309.187,169.93 289.461,172.7" fill-opacity="0" stroke="#666666" stroke-width="4" stroke-linecap="round" stroke-linejoin="round"/>
      <path d="M305.614,149.833 C305.614,149.833 301.741,148.605 298.256,149.064" fill="#FFECD0"/>
      <path d="M305.614,149.833 C305.614,149.833 301.741,148.605 298.256,149.064" fill-opacity="0" stroke="#666666" stroke-width="4" stroke-linecap="round" stroke-linejoin="round"/>
      <path d="M228.047,242.469 C108.232,257.55 94.667,56.217 202.89,42.596 C311.111,28.974 347.861,227.388 228.047,242.469" fill="#FFECD0"/>
      <path d="M228.047,242.469 C108.232,257.55 94.667,56.217 202.89,42.596 C311.111,28.974 347.861,227.388 228.047,242.469 z" fill-opacity="0" stroke="#666666" stroke-width="4" stroke-linecap="round" stroke-linejoin="round"/>
      <path d="M216.602,182.914 C216.602,182.914 216.027,189.034 221.197,188.047" fill-opacity="0" stroke="#666666" stroke-width="4" stroke-linecap="round" stroke-linejoin="round"/>
      <path d="M270.362,170.884 C270.362,170.884 267.516,186.87 272.083,193.957 C276.067,200.14 282.429,198.114 281.745,190.25 C281.403,186.316 279.785,184.006 279.785,184.006" fill="#A6DBE6"/>
      <path d="M270.362,170.884 C270.362,170.884 267.516,186.87 272.083,193.957 C276.067,200.14 282.429,198.114 281.745,190.25 C281.403,186.316 279.785,184.006 279.785,184.006" fill-opacity="0" stroke="#666666" stroke-width="4" stroke-linecap="round" stroke-linejoin="round"/>
      <path d="M235.31,321.624 L248.259,256.415 L228.662,258.269 L209.317,256.415 L222.267,321.624 z" fill="#FFFFFF"/>
      <path d="M235.31,321.624 L248.259,256.415 L228.662,258.269 L209.317,256.415 L222.267,321.624 L235.31,321.624 z" fill-opacity="0" stroke="#666666" stroke-width="4" stroke-linecap="round" stroke-linejoin="round"/>
      <path d="M263.132,293.421 L253.132,251.473 C248.419,250.886 246.462,248.809 243.429,248.808 L228.788,331.705 L214.147,248.808 C211.116,248.809 209.157,250.886 204.445,251.473 L194.445,293.421 L193.139,303.537 L228.495,336.29 z" fill="#878D91"/>
      <path d="M236.871,245.823 C236.871,245.823 234.95,253.969 228.662,259.425 C228.662,259.425 234.426,256.771 236.521,258.679 C238.617,260.587 247.001,265.835 247.001,265.835 L242.81,249.129 z" fill="#FFFFFF"/>
      <path d="M236.871,245.823 C236.871,245.823 234.95,253.969 228.662,259.425 C228.662,259.425 234.426,256.771 236.521,258.679 C238.617,260.587 247.001,265.835 247.001,265.835 L242.81,249.129 L236.871,245.823 z" fill-opacity="0" stroke="#666666" stroke-width="4" stroke-linecap="round" stroke-linejoin="round"/>
      <path d="M220.453,245.823 C220.453,245.823 222.374,253.969 228.662,259.425 C228.662,259.425 222.898,256.771 220.803,258.679 C218.707,260.587 210.323,265.835 210.323,265.835 L214.515,249.129 z" fill="#FFFFFF"/>
      <path d="M220.453,245.823 C220.453,245.823 222.374,253.969 228.662,259.425 C228.662,259.425 222.898,256.771 220.803,258.679 C218.707,260.587 210.323,265.835 210.323,265.835 L214.515,249.129 L220.453,245.823 z" fill-opacity="0" stroke="#666666" stroke-width="4" stroke-linecap="round" stroke-linejoin="round"/>
      <path d="M256.505,132.949 C257.458,140.516 255.713,146.967 252.605,147.359 C249.5,147.749 246.21,141.932 245.257,134.364 C244.306,126.797 246.051,120.346 249.156,119.955 C252.263,119.565 255.554,125.382 256.505,132.949" fill="#666666"/>
      <path d="M173.336,143.417 C174.288,150.985 177.578,156.802 180.686,156.41 C183.79,156.021 185.537,149.57 184.584,142.001 C183.632,134.434 180.341,128.617 177.236,129.008 C174.129,129.399 172.384,135.85 173.336,143.417" fill="#666666"/>
      <path d="M241.658,247.69 C241.658,247.69 270.788,254.013 277.781,257.807 C281.337,259.736 305.378,330.692 307.342,342.834 C309.306,354.977 291.204,366.119 280.537,346.119 C275.213,336.137 261.662,299.165 261.662,299.165" fill="#878D91"/>
      <path d="M241.658,247.69 C241.658,247.69 270.788,254.013 277.781,257.807 C281.337,259.736 305.378,330.692 307.342,342.834 C309.306,354.977 291.204,366.119 280.537,346.119 C275.213,336.137 261.662,299.165 261.662,299.165" fill-opacity="0" stroke="#666666" stroke-width="4" stroke-linecap="round" stroke-linejoin="round"/>
      <path d="M215.918,247.69 C215.918,247.69 186.788,254.013 179.795,257.807 C176.239,259.736 152.198,330.692 150.234,342.834 C148.271,354.977 166.372,366.119 177.039,346.119 C182.363,336.137 195.914,299.165 195.914,299.165" fill="#878D91"/>
      <path d="M215.918,247.69 C215.918,247.69 186.788,254.013 179.795,257.807 C176.239,259.736 152.198,330.692 150.234,342.834 C148.271,354.977 166.372,366.119 177.039,346.119 C182.363,336.137 195.914,299.165 195.914,299.165" fill-opacity="0" stroke="#666666" stroke-width="4" stroke-linecap="round" stroke-linejoin="round"/>
      <path d="M271.636,293.421 L280.53,438.165 C280.53,438.165 237.248,444.059 233.018,440.039 C228.788,436.02 228.788,401.817 228.788,401.817 L228.788,389.228 C228.788,389.228 228.788,436.02 224.559,440.039 C220.329,444.059 177.048,438.165 177.048,438.165 L185.942,293.421" fill="#878D91"/>
      <path d="M271.636,293.421 L280.53,438.165 C280.53,438.165 237.248,444.059 233.018,440.039 C228.788,436.02 228.788,401.817 228.788,401.817 L228.788,389.228 C228.788,389.228 228.788,436.02 224.559,440.039 C220.329,444.059 177.048,438.165 177.048,438.165 L185.942,293.421" fill-opacity="0" stroke="#666666" stroke-width="4" stroke-linecap="round" stroke-linejoin="round"/>
      <path d="M230.83,353.538 C230.83,354.667 229.916,355.579 228.788,355.579 C227.661,355.579 226.747,354.667 226.747,353.538 C226.747,352.411 227.661,351.497 228.788,351.497 C229.916,351.497 230.83,352.411 230.83,353.538" fill="#878D91"/>
      <path d="M230.83,353.538 C230.83,354.667 229.916,355.579 228.788,355.579 C227.661,355.579 226.747,354.667 226.747,353.538 C226.747,352.411 227.661,351.497 228.788,351.497 C229.916,351.497 230.83,352.411 230.83,353.538 z" fill-opacity="0" stroke="#666666" stroke-width="4" stroke-linecap="round" stroke-linejoin="round"/>
      <path d="M230.83,377.289 C230.83,378.417 229.916,379.33 228.788,379.33 C227.661,379.33 226.747,378.417 226.747,377.289 C226.747,376.161 227.661,375.247 228.788,375.247 C229.916,375.247 230.83,376.161 230.83,377.289" fill="#878D91"/>
      <path d="M230.83,377.289 C230.83,378.417 229.916,379.33 228.788,379.33 C227.661,379.33 226.747,378.417 226.747,377.289 C226.747,376.161 227.661,375.247 228.788,375.247 C229.916,375.247 230.83,376.161 230.83,377.289 z" fill-opacity="0" stroke="#666666" stroke-width="4" stroke-linecap="round" stroke-linejoin="round"/>
      <path d="M233.514,268.527 L228.495,268.167 L223.478,268.527 L220.134,301.956 L228.495,337.699 L236.856,301.956 z" fill="#915D5D"/>
      <path d="M233.514,268.527 L228.495,268.167 L223.478,268.527 L220.134,301.956 L228.495,337.699 L236.856,301.956 L233.514,268.527 z" fill-opacity="0" stroke="#666666" stroke-width="4" stroke-linecap="round" stroke-linejoin="round"/>
      <path d="M222.882,258.395 L223.521,267.895 C223.521,267.895 226.115,269.77 228.495,269.77 C230.876,269.77 233.47,267.895 233.47,267.895 L234.11,258.395 z" fill="#915D5D"/>
      <path d="M222.882,258.395 L223.521,267.895 C223.521,267.895 226.115,269.77 228.495,269.77 C230.876,269.77 233.47,267.895 233.47,267.895 L234.11,258.395 L222.882,258.395 z" fill-opacity="0" stroke="#666666" stroke-width="4" stroke-linecap="round" stroke-linejoin="round"/>
      <path d="M148.675,75.935 C148.675,75.935 178.519,80.199 189.306,75.818 C188.766,73.564 185.145,68.782 185.145,68.782 C185.145,68.782 213.179,72.435 226.243,68.997 C225.251,67.145 221.691,63.174 221.691,63.174 C221.691,63.174 250.569,67.278 259.128,64.005 C257.885,62.147 257.354,57.93 257.354,57.93 L273.418,59.435 C273.418,59.435 251.817,21.27 184.678,41.72 C132.73,57.54 148.675,75.935 148.675,75.935" fill="#8A7763"/>
      <path d="M148.675,75.935 C148.675,75.935 178.519,80.199 189.306,75.818 C188.766,73.564 185.145,68.782 185.145,68.782 C185.145,68.782 213.179,72.435 226.243,68.997 C225.251,67.145 221.691,63.174 221.691,63.174 C221.691,63.174 250.569,67.278 259.128,64.005 C257.885,62.147 257.354,57.93 257.354,57.93 L262.19,59.489" fill="#8A7763"/>
      <path d="M148.675,75.935 C148.675,75.935 178.519,80.199 189.306,75.818 C188.766,73.564 185.145,68.782 185.145,68.782 C185.145,68.782 213.179,72.435 226.243,68.997 C225.251,67.145 221.691,63.174 221.691,63.174 C221.691,63.174 250.569,67.278 259.128,64.005 C257.885,62.147 257.354,57.93 257.354,57.93 L262.19,59.489" fill-opacity="0" stroke="#666666" stroke-width="4" stroke-linecap="round" stroke-linejoin="round"/>
      <path d="M214.147,248.808 L203.162,259.833 L211.162,265.833 L202.829,269.833 L228.495,340.21 z" fill="#878D91"/>
      <path d="M214.147,248.808 L203.162,259.833 L211.162,265.833 L202.829,269.833 L228.495,340.21 L214.147,248.808 z" fill-opacity="0" stroke="#666666" stroke-width="4" stroke-linecap="round" stroke-linejoin="round"/>
      <path d="M242.845,248.808 L253.829,259.833 L245.829,265.833 L254.163,269.833 L228.495,340.21 z" fill="#878D91"/>
      <path d="M242.845,248.808 L253.829,259.833 L245.829,265.833 L254.163,269.833 L228.495,340.21 L242.845,248.808 z" fill-opacity="0" stroke="#666666" stroke-width="4" stroke-linecap="round" stroke-linejoin="round"/>
      <path d="M293.733,352.557 C293.733,352.557 296.295,334.895 272.486,333.246 C248.678,331.598 239.675,348.089 244.176,356.374 C247.45,362.403 269.626,365.01 281.096,356.765 C281.096,356.765 290.97,361.065 293.733,352.557" fill="#FFECD0"/>
      <path d="M293.733,352.557 C293.733,352.557 296.295,334.895 272.486,333.246 C248.678,331.598 239.675,348.089 244.176,356.374 C247.45,362.403 269.626,365.01 281.096,356.765 C281.096,356.765 290.97,361.065 293.733,352.557 z" fill-opacity="0" stroke="#666666" stroke-width="4" stroke-linecap="round" stroke-linejoin="round"/>
      <path d="M266.55,348.759 C266.55,348.759 264.312,352.124 265.476,355.84 C267.391,361.951 265.476,355.84 265.476,355.84" fill="#7B8394"/>
      <path d="M266.55,348.759 C266.55,348.759 264.312,352.124 265.476,355.84 C267.391,361.951 265.476,355.84 265.476,355.84" fill-opacity="0" stroke="#666666" stroke-width="4" stroke-linecap="round" stroke-linejoin="round"/>
      <path d="M257.195,345.728 C257.195,345.728 253.029,348.453 253.658,355.283 C254.636,365.917 253.658,355.283 253.658,355.283" fill="#7B8394"/>
      <path d="M257.195,345.728 C257.195,345.728 253.029,348.453 253.658,355.283 C254.636,365.917 253.658,355.283 253.658,355.283" fill-opacity="0" stroke="#666666" stroke-width="4" stroke-linecap="round" stroke-linejoin="round"/>
      <path d="M83.76,368.649 C83.76,369.789 84.684,370.713 85.824,370.713 L285.42,370.713 C286.561,370.713 287.484,369.789 287.484,368.649 L287.484,361.226 C287.484,360.084 286.561,359.159 285.42,359.159 L85.824,359.159 C84.684,359.159 83.76,360.084 83.76,361.226 z" fill="#DEE1E3"/>
      <path d="M83.76,368.649 C83.76,369.789 84.684,370.713 85.824,370.713 L285.42,370.713 C286.561,370.713 287.484,369.789 287.484,368.649 L287.484,361.226 C287.484,360.084 286.561,359.159 285.42,359.159 L85.824,359.159 C84.684,359.159 83.76,360.084 83.76,361.226 L83.76,368.649 z" fill-opacity="0" stroke="#666666" stroke-width="4" stroke-linecap="round" stroke-linejoin="round"/>
      <path d="M78.166,357.197 C78.845,359.264 81.069,360.939 83.136,360.939 L225.332,360.939 C227.398,360.939 228.524,359.264 227.847,357.197 L194.449,255.414 C193.771,253.347 191.547,251.672 189.479,251.672 L47.282,251.672 C45.215,251.672 44.089,253.347 44.769,255.414 z" fill="#DEE1E3"/>
      <path d="M78.166,357.197 C78.845,359.264 81.069,360.939 83.136,360.939 L225.332,360.939 C227.398,360.939 228.524,359.264 227.847,357.197 L194.449,255.414 C193.771,253.347 191.547,251.672 189.479,251.672 L47.282,251.672 C45.215,251.672 44.089,253.347 44.769,255.414 L78.166,357.197 z" fill-opacity="0" stroke="#666666" stroke-width="4" stroke-linecap="round" stroke-linejoin="round"/>
      <path d="M216.994,351.346 L188.215,263.635 C187.536,261.568 185.312,259.893 183.244,259.893 L55.424,259.893" fill-opacity="0" stroke="#666666" stroke-width="4" stroke-linecap="round" stroke-linejoin="round"/>
      <path d="M53.09,388.465 L320.09,388.465 C321.747,388.465 323.09,387.122 323.09,385.465 L323.09,374.63 C323.09,372.973 321.747,371.63 320.09,371.63 L53.09,371.63 z" fill="#FFEEB0"/>
      <path d="M53.09,388.465 L320.09,388.465 C321.747,388.465 323.09,387.122 323.09,385.465 L323.09,374.63 C323.09,372.973 321.747,371.63 320.09,371.63 L53.09,371.63 L53.09,388.465 z" fill-opacity="0" stroke="#666666" stroke-width="4" stroke-linecap="round" stroke-linejoin="round"/>
      <path d="M162.872,109.968 L184.971,111.637" fill-opacity="0" stroke="#666666" stroke-width="4" stroke-linecap="round" stroke-linejoin="round"/>
      <path d="M258.353,97.95 L237.357,105.043" fill-opacity="0" stroke="#666666" stroke-width="4" stroke-linecap="round" stroke-linejoin="round"/>
      <path d="M222.581,199.043 C233.376,197.685 238.971,224.194 225.953,225.832 C212.936,227.471 211.786,200.402 222.581,199.043" fill="#F09A96"/>
      <path d="M222.581,199.043 C233.376,197.685 238.971,224.194 225.953,225.832 C212.936,227.471 211.786,200.402 222.581,199.043 z" fill-opacity="0" stroke="#666666" stroke-width="4" stroke-linecap="round" stroke-linejoin="round"/>
    </g>
  </g>
</svg>
