<?xml version="1.0" encoding="UTF-8"?>
<!DOCTYPE svg PUBLIC "-//W3C//DTD SVG 1.1//EN" "http://www.w3.org/Graphics/SVG/1.1/DTD/svg11.dtd">
<svg version="1.1" xmlns="http://www.w3.org/2000/svg" xmlns:xlink="http://www.w3.org/1999/xlink" x="0" y="0" width="309" height="412" viewBox="0, 0, 309, 412">
  <defs>
    <clipPath id="Clip_1">
      <path d="M306.742,1.362 L306.742,409.18 L2.257,409.18 L2.257,1.362 L306.742,1.362 z"/>
    </clipPath>
  </defs>
  <g id="Layer_1">
    <g clip-path="url(#Clip_1)">
      <path d="M74.4,337.58 L69.98,338.075 L71.191,337.708 L74.157,337.391 C74.236,337.455 74.319,337.517 74.4,337.58 M177.101,235.417 C205.421,236.702 227.288,225.303 242.435,207.348 L256.896,239.91 C243.142,240.489 224.253,240.336 219.548,240.308 C206.619,240.232 199.411,239.296 182.492,239.832 L177.565,238.617 L177.404,238.617 z M294.273,243.309 C288.499,226.152 271.149,195.531 263.354,182.155 C271.665,179.894 276.372,174.278 277.626,164.867 C279.232,152.816 273.523,146.996 267.124,144.198 C267.127,144.167 267.128,144.137 267.132,144.107 L267.209,144.117 C267.209,144.117 285.408,65.142 272.452,51.31 C267.136,45.632 262.227,42.958 258.284,41.774 C254.659,36.536 246.464,26.448 232.281,17.71 L234.041,24.671 C234.041,24.671 224.137,14.74 211.067,12.867 C197.995,10.993 190.339,9.433 190.339,9.433 L191.771,16.35 C191.771,16.35 177.983,8.797 163.29,10.537 L165.273,15.846 C165.273,15.846 148.863,10.296 132.253,18.845 L133.246,24.021 C133.246,24.021 131.704,20.453 115.58,30.411 C99.457,40.369 96.343,121.355 96.343,121.355 L96.422,121.366 C96.417,121.395 96.411,121.424 96.406,121.454 C89.498,122.481 82.466,126.603 80.86,138.655 C79.329,150.151 84.216,157.549 95.66,161.655 C100.812,195.994 121.718,225.848 162.279,233.648 L161.808,238.617 L161.649,238.617 C161.649,238.617 159.292,239.2 156.736,239.833 L156.737,239.832 C156.737,239.832 127.608,246.156 120.615,249.95 C119.527,250.539 106.978,266.166 94.302,283.211 C92.744,283.195 91.183,283.181 89.635,283.17 C91.358,276.155 88.267,267.758 82.271,260.824 C71.926,248.849 45.409,262.935 41.26,270.806 C37.108,278.684 37.625,278.621 40.776,292.187 C40.786,292.233 40.801,292.274 40.812,292.319 C28.154,297.567 15.016,303.268 15.016,303.268 L19.639,353.313 L69.976,338.076 L79.043,344.077 L86.856,343.088 C88.027,343.152 89.111,343.026 90.065,342.682 L111.477,339.972 L117.985,332.708 L98.542,334.881 C98.574,334.847 98.607,334.81 98.639,334.775 L123.785,332.088 C123.878,332.262 123.97,332.438 124.069,332.604 L113.143,400.314 L115.85,412.392 L115.851,412.392 L115.851,427.391 L119.435,427.391 L123.785,559.563 C123.741,587.953 126.168,642.521 126.591,646.054 C127.49,653.558 132.355,657.896 132.355,657.896 C132.355,657.896 126.987,665.775 128.24,667.642 C128.61,668.194 131.387,668.418 135.105,668.462 C132.73,669.334 130.583,670.494 128.934,672.044 C122.293,678.281 126.388,680.28 126.388,680.28 L158.235,680.28 L158.235,667.642 C158.235,667.642 162.074,664.643 162.074,661.976 C162.074,660.084 160.425,655.771 159.465,653.416 L159.549,650.819 C160.994,648.856 163.993,644.385 163.74,641.338 C163.478,638.202 168.201,460.275 168.201,460.275 L169.607,458.719 L171.013,460.275 C171.013,460.275 175.738,638.202 175.475,641.338 C175.221,644.385 178.22,648.856 179.666,650.819 L179.749,653.416 C178.789,655.771 177.141,660.084 177.141,661.976 C177.141,664.643 180.979,667.642 180.979,667.642 L180.979,680.28 L212.826,680.28 C212.826,680.28 216.921,678.281 210.281,672.044 C208.631,670.494 206.486,669.334 204.109,668.462 C207.827,668.418 210.605,668.194 210.975,667.642 C212.227,665.775 206.861,657.896 206.861,657.896 C206.861,657.896 211.725,653.558 212.623,646.054 C213.046,642.521 215.477,587.953 215.432,559.563 L219.781,427.391 L223.947,427.391 L223.947,412.392 L226.653,400.314 L215.595,331.773 C216.519,329.907 217.085,327.631 217.127,325.164 L215.075,298.82 C215.076,298.791 215.075,298.766 215.076,298.739 L216.208,298.758 C217.302,298.776 218.203,297.735 218.224,296.431 L216.675,287.484 C216.679,287.232 215.279,287.007 213.031,286.819 C214.497,286.318 216.136,285.756 217.911,285.148 C217.911,285.148 254.451,278.337 264.906,274.087 C276.697,269.294 301.675,265.308 294.273,243.309" fill="#797979"/>
      <path d="M74.4,337.58 L69.98,338.075 L71.191,337.708 L74.157,337.391 C74.236,337.455 74.319,337.517 74.4,337.58 z M177.101,235.417 C205.421,236.702 227.288,225.303 242.435,207.348 L256.896,239.91 C243.142,240.489 224.253,240.336 219.548,240.308 C206.619,240.232 199.411,239.296 182.492,239.832 L177.565,238.617 L177.404,238.617 L177.101,235.417 z M294.273,243.309 C288.499,226.152 271.149,195.531 263.354,182.155 C271.665,179.894 276.372,174.278 277.626,164.867 C279.232,152.816 273.523,146.996 267.124,144.198 C267.127,144.167 267.128,144.137 267.132,144.107 L267.209,144.117 C267.209,144.117 285.408,65.142 272.452,51.31 C267.136,45.632 262.227,42.958 258.284,41.774 C254.659,36.536 246.464,26.448 232.281,17.71 L234.041,24.671 C234.041,24.671 224.137,14.74 211.067,12.867 C197.995,10.993 190.339,9.433 190.339,9.433 L191.771,16.35 C191.771,16.35 177.983,8.797 163.29,10.537 L165.273,15.846 C165.273,15.846 148.863,10.296 132.253,18.845 L133.246,24.021 C133.246,24.021 131.704,20.453 115.58,30.411 C99.457,40.369 96.343,121.355 96.343,121.355 L96.422,121.366 C96.417,121.395 96.411,121.424 96.406,121.454 C89.498,122.481 82.466,126.603 80.86,138.655 C79.329,150.151 84.216,157.549 95.66,161.655 C100.812,195.994 121.718,225.848 162.279,233.648 L161.808,238.617 L161.649,238.617 C161.649,238.617 159.292,239.2 156.736,239.833 L156.737,239.832 C156.737,239.832 127.608,246.156 120.615,249.95 C119.527,250.539 106.978,266.166 94.302,283.211 C92.744,283.195 91.183,283.181 89.635,283.17 C91.358,276.155 88.267,267.758 82.271,260.824 C71.926,248.849 45.409,262.935 41.26,270.806 C37.108,278.684 37.625,278.621 40.776,292.187 C40.786,292.233 40.801,292.274 40.812,292.319 C28.154,297.567 15.016,303.268 15.016,303.268 L19.639,353.313 L69.976,338.076 L79.043,344.077 L86.856,343.088 C88.027,343.152 89.111,343.026 90.065,342.682 L111.477,339.972 L117.985,332.708 L98.542,334.881 C98.574,334.847 98.607,334.81 98.639,334.775 L123.785,332.088 C123.878,332.262 123.97,332.438 124.069,332.604 L113.143,400.314 L115.85,412.392 L115.851,412.392 L115.851,427.391 L119.435,427.391 L123.785,559.563 C123.741,587.953 126.168,642.521 126.591,646.054 C127.49,653.558 132.355,657.896 132.355,657.896 C132.355,657.896 126.987,665.775 128.24,667.642 C128.61,668.194 131.387,668.418 135.105,668.462 C132.73,669.334 130.583,670.494 128.934,672.044 C122.293,678.281 126.388,680.28 126.388,680.28 L158.235,680.28 L158.235,667.642 C158.235,667.642 162.074,664.643 162.074,661.976 C162.074,660.084 160.425,655.771 159.465,653.416 L159.549,650.819 C160.994,648.856 163.993,644.385 163.74,641.338 C163.478,638.202 168.201,460.275 168.201,460.275 L169.607,458.719 L171.013,460.275 C171.013,460.275 175.738,638.202 175.475,641.338 C175.221,644.385 178.22,648.856 179.666,650.819 L179.749,653.416 C178.789,655.771 177.141,660.084 177.141,661.976 C177.141,664.643 180.979,667.642 180.979,667.642 L180.979,680.28 L212.826,680.28 C212.826,680.28 216.921,678.281 210.281,672.044 C208.631,670.494 206.486,669.334 204.109,668.462 C207.827,668.418 210.605,668.194 210.975,667.642 C212.227,665.775 206.861,657.896 206.861,657.896 C206.861,657.896 211.725,653.558 212.623,646.054 C213.046,642.521 215.477,587.953 215.432,559.563 L219.781,427.391 L223.947,427.391 L223.947,412.392 L226.653,400.314 L215.595,331.773 C216.519,329.907 217.085,327.631 217.127,325.164 L215.075,298.82 C215.076,298.791 215.075,298.766 215.076,298.739 L216.208,298.758 C217.302,298.776 218.203,297.735 218.224,296.431 L216.675,287.484 C216.679,287.232 215.279,287.007 213.031,286.819 C214.497,286.318 216.136,285.756 217.911,285.148 C217.911,285.148 254.451,278.337 264.906,274.087 C276.697,269.294 301.675,265.308 294.273,243.309 z" fill-opacity="0" stroke="#797979" stroke-width="8" stroke-linecap="round" stroke-linejoin="round"/>
      <path d="M64.014,376.243 L65.344,379.099 L63.597,378.943 z" fill="#FCEDD7"/>
      <path d="M64.014,376.243 L65.344,379.099 L63.597,378.943 L64.014,376.243 z" fill-opacity="0" stroke="#797979" stroke-width="4" stroke-linecap="round" stroke-linejoin="round"/>
      <path d="M71.557,354.657 L71.557,357.968" fill="#FCEDD7"/>
      <path d="M71.557,354.657 L71.557,357.968" fill-opacity="0" stroke="#797979" stroke-width="4" stroke-linecap="round" stroke-linejoin="round"/>
      <path d="M90.088,361.171 L90.317,361.833" fill="#FCEDD7"/>
      <path d="M90.088,361.171 L90.317,361.833" fill-opacity="0" stroke="#797979" stroke-width="4" stroke-linecap="round" stroke-linejoin="round"/>
      <path d="M81.68,392.374 L82.227,394.728" fill="#FCEDD7"/>
      <path d="M81.68,392.374 L82.227,394.728" fill-opacity="0" stroke="#797979" stroke-width="4" stroke-linecap="round" stroke-linejoin="round"/>
      <path d="M29.893,271.419 C28.1,261.39 36.56,246.086 50.56,246.086" fill-opacity="0" stroke="#797979" stroke-width="4" stroke-linecap="round" stroke-linejoin="round"/>
      <path d="M21.893,260.752 C19.766,250.723 29.766,238.723 39.227,239.419" fill-opacity="0" stroke="#797979" stroke-width="4" stroke-linecap="round" stroke-linejoin="round"/>
      <path d="M120.406,393.308 L119.314,423.712 L123.785,559.563 C123.741,587.953 126.168,642.521 126.591,646.054 C127.49,653.558 132.355,657.896 132.355,657.896 C132.355,657.896 126.987,665.775 128.24,667.642 C129.493,669.509 158.235,667.642 158.235,667.642 C158.235,667.642 162.074,664.643 162.074,661.976 C162.074,660.084 160.425,655.771 159.465,653.416 L159.549,650.819 C160.994,648.856 163.993,644.385 163.74,641.338 C163.478,638.202 168.201,460.275 168.201,460.275 L169.607,458.719 L169.607,393.684 z" fill="#CADCDE"/>
      <path d="M120.406,393.308 L119.314,423.712 L123.785,559.563 C123.741,587.953 126.168,642.521 126.591,646.054 C127.49,653.558 132.355,657.896 132.355,657.896 C132.355,657.896 126.987,665.775 128.24,667.642 C129.493,669.509 158.235,667.642 158.235,667.642 C158.235,667.642 162.074,664.643 162.074,661.976 C162.074,660.084 160.425,655.771 159.465,653.416 L159.549,650.819 C160.994,648.856 163.993,644.385 163.74,641.338 C163.478,638.202 168.201,460.275 168.201,460.275 L169.607,458.719 L169.607,393.684 L120.406,393.308 z" fill-opacity="0" stroke="#797979" stroke-width="4" stroke-linecap="round" stroke-linejoin="round"/>
      <path d="M218.809,393.308 L219.901,423.712 L215.432,559.563 C215.477,587.953 213.046,642.521 212.623,646.054 C211.725,653.558 206.861,657.896 206.861,657.896 C206.861,657.896 212.227,665.775 210.975,667.642 C209.723,669.509 180.979,667.642 180.979,667.642 C180.979,667.642 177.141,664.643 177.141,661.976 C177.141,660.084 178.789,655.771 179.749,653.416 L179.666,650.819 C178.22,648.856 175.221,644.385 175.475,641.338 C175.738,638.202 171.013,460.275 171.013,460.275 L169.607,458.719 L169.607,393.684 z" fill="#CADCDE"/>
      <path d="M218.809,393.308 L219.901,423.712 L215.432,559.563 C215.477,587.953 213.046,642.521 212.623,646.054 C211.725,653.558 206.861,657.896 206.861,657.896 C206.861,657.896 212.227,665.775 210.975,667.642 C209.723,669.509 180.979,667.642 180.979,667.642 C180.979,667.642 177.141,664.643 177.141,661.976 C177.141,660.084 178.789,655.771 179.749,653.416 L179.666,650.819 C178.22,648.856 175.221,644.385 175.475,641.338 C175.738,638.202 171.013,460.275 171.013,460.275 L169.607,458.719 L169.607,393.684 L218.809,393.308 z" fill-opacity="0" stroke="#797979" stroke-width="4" stroke-linecap="round" stroke-linejoin="round"/>
      <path d="M115.58,30.411 C131.704,20.453 133.246,24.021 133.246,24.021 L132.253,18.845 C148.863,10.296 165.273,15.846 165.273,15.846 L163.29,10.537 C177.983,8.797 191.771,16.35 191.771,16.35 L190.339,9.433 C190.339,9.433 197.995,10.993 211.067,12.867 C224.137,14.74 234.041,24.671 234.041,24.671 L232.281,17.71 C246.464,26.448 254.659,36.536 258.284,41.774 C262.227,42.958 267.136,45.632 272.452,51.31 C285.408,65.142 267.209,144.117 267.209,144.117 L181.777,132.736 L96.343,121.355 C96.343,121.355 99.457,40.369 115.58,30.411" fill="#AC9A6D"/>
      <path d="M115.58,30.411 C131.704,20.453 133.246,24.021 133.246,24.021 L132.253,18.845 C148.863,10.296 165.273,15.846 165.273,15.846 L163.29,10.537 C177.983,8.797 191.771,16.35 191.771,16.35 L190.339,9.433 C190.339,9.433 197.995,10.993 211.067,12.867 C224.137,14.74 234.041,24.671 234.041,24.671 L232.281,17.71 C246.464,26.448 254.659,36.536 258.284,41.774 C262.227,42.958 267.136,45.632 272.452,51.31 C285.408,65.142 267.209,144.117 267.209,144.117 L181.777,132.736 L96.343,121.355 C96.343,121.355 99.457,40.369 115.58,30.411 z" fill-opacity="0" stroke="#797979" stroke-width="4" stroke-linecap="round" stroke-linejoin="round"/>
      <path d="M218.893,249.95 C211.899,246.156 182.77,239.832 182.77,239.832 L157.031,239.832 C157.031,239.832 127.9,246.156 120.907,249.95 L131.009,291.558 L208.789,291.558 z" fill="#CADCDE"/>
      <path d="M218.893,249.95 C211.899,246.156 182.77,239.832 182.77,239.832 L157.031,239.832 C157.031,239.832 127.9,246.156 120.907,249.95 L131.009,291.558 L208.789,291.558 L218.893,249.95 z" fill-opacity="0" stroke="#797979" stroke-width="4" stroke-linecap="round" stroke-linejoin="round"/>
      <path d="M177.565,240.317 L176.096,224.8 L169.607,220.58 L163.117,224.8 L161.648,240.317 C161.648,240.317 159.9,251.742 169.607,251.742 C179.314,251.742 177.565,240.317 177.565,240.317" fill="#FFEFD9"/>
      <path d="M177.565,240.317 L176.096,224.8 L169.607,220.58 L163.117,224.8 L161.648,240.317 C161.648,240.317 159.9,251.742 169.607,251.742 C179.314,251.742 177.565,240.317 177.565,240.317 z" fill-opacity="0" stroke="#797979" stroke-width="4" stroke-linecap="round" stroke-linejoin="round"/>
      <path d="M156.737,239.832 C156.737,239.832 127.608,246.156 120.615,249.95 C118.365,251.17 67.054,316.761 67.054,326.095 C67.054,335.429 85.526,347.309 91.858,341.642 C105.778,329.186 134.332,289.393 134.332,289.393" fill="#CADCDE"/>
      <path d="M156.737,239.832 C156.737,239.832 127.608,246.156 120.615,249.95 C118.365,251.17 67.054,316.761 67.054,326.095 C67.054,335.429 85.526,347.309 91.858,341.642 C105.778,329.186 134.332,289.393 134.332,289.393" fill-opacity="0" stroke="#797979" stroke-width="4" stroke-linecap="round" stroke-linejoin="round"/>
      <path d="M182.477,239.832 C199.408,239.295 206.616,240.232 219.548,240.308 C226.138,240.347 260.557,240.633 269.71,238.808 C278.865,236.982 279.309,256.117 277.327,263.171 C276.733,265.29 205.465,289.393 205.465,289.393" fill="#CADCDE"/>
      <path d="M182.477,239.832 C199.408,239.295 206.616,240.232 219.548,240.308 C226.138,240.347 260.557,240.633 269.71,238.808 C278.865,236.982 279.309,256.117 277.327,263.171 C276.733,265.29 205.465,289.393 205.465,289.393" fill-opacity="0" stroke="#797979" stroke-width="4" stroke-linecap="round" stroke-linejoin="round"/>
      <path d="M258.015,242.431 L235.922,192.682 L259.488,175.598 C259.488,175.598 286.74,220.919 294.273,243.309 C301.675,265.308 276.697,269.294 264.906,274.087 C254.451,278.337 217.911,285.148 217.911,285.148" fill="#CADCDE"/>
      <path d="M258.015,242.431 L235.922,192.682 L259.488,175.598 C259.488,175.598 286.74,220.919 294.273,243.309 C301.675,265.308 276.697,269.294 264.906,274.087 C254.451,278.337 217.911,285.148 217.911,285.148" fill-opacity="0" stroke="#797979" stroke-width="4" stroke-linecap="round" stroke-linejoin="round"/>
      <path d="M131.498,286.558 L113.143,400.314 L115.85,412.392 L223.947,412.392 L226.653,400.314 L208.3,286.558" fill="#CADCDE"/>
      <path d="M131.498,286.558 L113.143,400.314 L115.85,412.392 L223.947,412.392 L226.653,400.314 L208.3,286.558" fill-opacity="0" stroke="#797979" stroke-width="4" stroke-linecap="round" stroke-linejoin="round"/>
      <path d="M161.649,238.617 C161.649,238.617 150.403,241.398 150.401,241.414 C150.366,241.609 154.207,258.475 169.578,258.475 C184.95,258.475 188.809,241.389 188.809,241.389 L177.565,238.617" fill="#FFEFD9"/>
      <path d="M161.649,238.617 C161.649,238.617 150.403,241.398 150.401,241.414 C150.366,241.609 154.207,258.475 169.578,258.475 C184.95,258.475 188.809,241.389 188.809,241.389 L177.565,238.617" fill-opacity="0" stroke="#797979" stroke-width="4" stroke-linecap="round" stroke-linejoin="round"/>
      <path d="M169.607,251.825 C162.882,251.825 158.499,250.918 155.64,249.683 L169.607,303.058 L183.575,249.683 C180.716,250.918 176.333,251.825 169.607,251.825" fill="#797979"/>
      <path d="M169.607,251.825 C162.882,251.825 158.499,250.918 155.64,249.683 L169.607,303.058 L183.575,249.683 C180.716,250.918 176.333,251.825 169.607,251.825 z" fill-opacity="0" stroke="#797979" stroke-width="4" stroke-linecap="round" stroke-linejoin="round"/>
      <path d="M173.107,412.558 L165.582,412.558 L165.582,285.766 L173.107,285.766 z" fill="#CADCDE"/>
      <path d="M173.107,412.558 L165.581,412.558 L165.581,285.766 L173.107,285.766 L173.107,412.558 z" fill-opacity="0" stroke="#797979" stroke-width="4" stroke-linecap="round" stroke-linejoin="round"/>
      <path d="M169.607,289.477 L152.89,240.929 L135.149,265.901 z" fill="#CADCDE"/>
      <path d="M169.607,289.477 L152.89,240.929 L135.149,265.901 L169.607,289.477 z" fill-opacity="0" stroke="#797979" stroke-width="4" stroke-linecap="round" stroke-linejoin="round"/>
      <path d="M169.607,289.477 L186.324,240.929 L204.065,265.901 z" fill="#CADCDE"/>
      <path d="M169.607,289.477 L186.324,240.929 L204.065,265.901 L169.607,289.477 z" fill-opacity="0" stroke="#797979" stroke-width="4" stroke-linecap="round" stroke-linejoin="round"/>
      <path d="M179.684,324.476 C179.576,330.893 183.026,336.157 187.391,336.23 L209.026,336.65 C213.391,336.724 217.018,331.579 217.127,325.164 L215.075,298.82 C215.184,292.406 214.209,288.436 209.844,288.362 L189.343,288.014 C184.977,287.941 180.218,293.01 180.108,299.425 z" fill="#CADCDE"/>
      <path d="M179.684,324.476 C179.576,330.893 183.026,336.157 187.391,336.23 L209.026,336.65 C213.391,336.724 217.018,331.579 217.127,325.164 L215.075,298.82 C215.184,292.406 214.209,288.436 209.844,288.362 L189.343,288.014 C184.977,287.941 180.218,293.01 180.108,299.425 L179.684,324.476 z" fill-opacity="0" stroke="#797979" stroke-width="4" stroke-linecap="round" stroke-linejoin="round"/>
      <path d="M199.047,299.059 L199.957,336.473" fill="#CADCDE"/>
      <path d="M199.047,299.059 L199.957,336.473" fill-opacity="0" stroke="#797979" stroke-width="4" stroke-linecap="round" stroke-linejoin="round"/>
      <path d="M178.631,295.739 C178.612,297.042 179.476,298.114 180.567,298.131 L216.208,298.758 C217.302,298.776 218.203,297.735 218.224,296.431 L216.675,287.484 C216.699,286.179 179.37,285.612 179.348,286.915 z" fill="#CADCDE"/>
      <path d="M178.631,295.739 C178.612,297.042 179.476,298.114 180.567,298.131 L216.208,298.758 C217.302,298.776 218.203,297.735 218.224,296.431 L216.675,287.484 C216.699,286.179 179.37,285.612 179.348,286.915 L178.631,295.739 z" fill-opacity="0" stroke="#797979" stroke-width="4" stroke-linecap="round" stroke-linejoin="round"/>
      <path d="M159.531,324.476 C159.637,330.893 156.188,336.157 151.824,336.23 L130.188,336.65 C125.824,336.724 122.197,331.579 122.086,325.164 L124.139,298.82 C124.031,292.406 125.004,288.436 129.369,288.362 L149.871,288.014 C154.237,287.941 158.996,293.01 159.106,299.425 z" fill="#CADCDE"/>
      <path d="M159.531,324.476 C159.637,330.893 156.188,336.157 151.824,336.23 L130.188,336.65 C125.824,336.724 122.197,331.579 122.086,325.164 L124.139,298.82 C124.031,292.406 125.004,288.436 129.369,288.362 L149.871,288.014 C154.237,287.941 158.996,293.01 159.106,299.425 L159.531,324.476 z" fill-opacity="0" stroke="#797979" stroke-width="4" stroke-linecap="round" stroke-linejoin="round"/>
      <path d="M140.166,299.059 L139.256,336.473" fill="#CADCDE"/>
      <path d="M140.166,299.059 L139.256,336.473" fill-opacity="0" stroke="#797979" stroke-width="4" stroke-linecap="round" stroke-linejoin="round"/>
      <path d="M160.582,295.739 C160.603,297.042 159.74,298.114 158.647,298.131 L123.005,298.758 C121.912,298.776 121.011,297.735 120.99,296.431 L122.538,287.484 C122.516,286.179 159.843,285.612 159.866,286.915 z" fill="#CADCDE"/>
      <path d="M160.582,295.739 C160.603,297.042 159.74,298.114 158.647,298.131 L123.005,298.758 C121.912,298.776 121.011,297.735 120.99,296.431 L122.538,287.484 C122.516,286.179 159.843,285.612 159.866,286.915 L160.582,295.739 z" fill-opacity="0" stroke="#797979" stroke-width="4" stroke-linecap="round" stroke-linejoin="round"/>
      <path d="M111.349,122.908 C111.349,122.908 84.22,113.434 80.86,138.655 C78.884,153.492 87.59,161.506 107.295,164.42" fill="#FFEFD9"/>
      <path d="M111.349,122.908 C111.349,122.908 84.22,113.434 80.86,138.655 C78.884,153.492 87.59,161.506 107.295,164.42" fill-opacity="0" stroke="#797979" stroke-width="4" stroke-linecap="round" stroke-linejoin="round"/>
      <path d="M91.308,141.436 C91.308,141.436 95.19,140.235 98.672,140.721" fill="#FFEFD9"/>
      <path d="M91.308,141.436 C91.308,141.436 95.19,140.235 98.672,140.721" fill-opacity="0" stroke="#797979" stroke-width="4" stroke-linecap="round" stroke-linejoin="round"/>
      <path d="M252.324,141.688 C252.324,141.688 280.986,139.648 277.626,164.867 C275.65,179.704 265.148,185.16 245.368,182.814" fill="#FFEFD9"/>
      <path d="M252.324,141.688 C252.324,141.688 280.986,139.648 277.626,164.867 C275.65,179.704 265.148,185.16 245.368,182.814" fill-opacity="0" stroke="#797979" stroke-width="4" stroke-linecap="round" stroke-linejoin="round"/>
      <path d="M266.815,164.817 C266.815,164.817 263.382,162.641 259.895,162.199" fill="#FFEFD9"/>
      <path d="M266.815,164.817 C266.815,164.817 263.382,162.641 259.895,162.199" fill-opacity="0" stroke="#797979" stroke-width="4" stroke-linecap="round" stroke-linejoin="round"/>
      <path d="M168.202,234.629 C48.5,218.684 86.683,20.539 194.804,34.945 C302.926,49.348 287.906,250.576 168.202,234.629" fill="#FFEFD9"/>
      <path d="M168.202,234.629 C48.5,218.684 86.683,20.539 194.804,34.945 C302.926,49.348 287.906,250.576 168.202,234.629 z" fill-opacity="0" stroke="#797979" stroke-width="4" stroke-linecap="round" stroke-linejoin="round"/>
      <path d="M121.581,49.066 L120.884,61.59 C133.564,53.451 146.363,50.844 146.363,50.844 L144.074,59.892 C151.79,51.872 173.005,48.987 173.005,48.987 L170.746,59.417 C184.085,53.165 201.496,54.819 201.496,54.819 L194.845,63.107 C203.477,60.478 228.173,58.816 228.173,58.816 L223.939,68.06 C250.424,71.32 259.009,70.638 259.009,70.638 C259.009,70.638 256.373,44.806 248.333,38.88 C240.291,32.953 207.17,23.316 194.724,20.967 C182.277,18.619 135.603,25.082 130.172,30.503 C124.74,35.922 121.581,49.066 121.581,49.066" fill="#AC9A6D"/>
      <path d="M259.009,70.638 C259.009,70.638 250.424,71.32 223.939,68.06 L228.173,58.816 C228.173,58.816 203.477,60.478 194.845,63.107 L201.496,54.819 C201.496,54.819 184.085,53.165 170.746,59.417 L173.005,48.987 C173.005,48.987 151.79,51.872 144.074,59.892 L146.363,50.844 C146.363,50.844 133.564,53.451 120.884,61.59 L121.581,49.066" fill-opacity="0" stroke="#797979" stroke-width="4" stroke-linecap="round" stroke-linejoin="round"/>
      <path d="M223.918,136.016 C222.911,143.575 219.579,149.369 216.476,148.955 C213.373,148.542 211.674,142.078 212.681,134.518 C213.689,126.958 217.02,121.165 220.122,121.578 C223.226,121.992 224.925,128.454 223.918,136.016" fill="#797979"/>
      <path d="M140.826,124.946 C139.82,132.506 141.519,138.969 144.622,139.383 C147.725,139.796 151.057,134.003 152.065,126.443 C153.072,118.883 151.372,112.419 148.27,112.006 C145.166,111.592 141.833,117.386 140.826,124.946" fill="#797979"/>
      <path d="M172.601,174.163 C172.601,174.163 170.487,179.935 175.736,180.299" fill-opacity="0" stroke="#797979" stroke-width="4" stroke-linecap="round" stroke-linejoin="round"/>
      <path d="M151.04,207.358 C151.04,207.358 160.704,197.211 173.26,198.884" fill-opacity="0" stroke="#797979" stroke-width="4" stroke-linecap="round" stroke-linejoin="round"/>
      <path d="M192.487,212.879 C192.487,212.879 185.816,200.557 173.26,198.884" fill-opacity="0" stroke="#797979" stroke-width="4" stroke-linecap="round" stroke-linejoin="round"/>
      <path d="M139.254,91.855 C143.879,92.471 154.716,91.897 159.034,89.782" fill-opacity="0" stroke="#797979" stroke-width="4" stroke-linecap="round" stroke-linejoin="round"/>
      <path d="M234.099,104.49 C229.474,103.873 219.164,100.483 215.552,97.311" fill-opacity="0" stroke="#797979" stroke-width="4" stroke-linecap="round" stroke-linejoin="round"/>
      <path d="M19.639,353.313 L71.191,337.708 L128.889,331.542 L68.965,320.891 z" fill="#AF9C7F"/>
      <path d="M19.639,353.313 L71.191,337.708 L128.889,331.542 L68.965,320.891 L19.639,353.313 z" fill-opacity="0" stroke="#797979" stroke-width="4" stroke-linecap="round" stroke-linejoin="round"/>
      <path d="M19.639,353.313 C19.639,353.313 63.176,331.534 68.977,330.736 C74.783,329.938 128.889,331.542 128.889,331.542 L124.266,283.74 C124.266,283.74 69.579,282.367 63.093,283.789 C56.606,285.219 15.016,303.268 15.016,303.268 z" fill="#AF9C7F"/>
      <path d="M19.639,353.313 C19.639,353.313 63.176,331.534 68.977,330.736 C74.783,329.938 128.889,331.542 128.889,331.542 L124.266,283.74 C124.266,283.74 69.579,282.367 63.093,283.789 C56.606,285.219 15.016,303.268 15.016,303.268 L19.639,353.313 z" fill-opacity="0" stroke="#797979" stroke-width="4" stroke-linecap="round" stroke-linejoin="round"/>
      <path d="M63.949,291.304 L68.668,323.072" fill="#AF9C7F"/>
      <path d="M63.949,291.304 L68.668,323.072" fill-opacity="0" stroke="#797979" stroke-width="4" stroke-linecap="round" stroke-linejoin="round"/>
      <path d="M69.975,338.075 L79.043,344.077 L111.477,339.972 L117.985,332.708 z" fill="#AF9C7F"/>
      <path d="M69.975,338.075 L79.043,344.077 L111.477,339.972 L117.985,332.708 L69.975,338.075 z" fill-opacity="0" stroke="#797979" stroke-width="4" stroke-linecap="round" stroke-linejoin="round"/>
      <path d="M41.26,270.806 C45.409,262.935 71.926,248.849 82.271,260.824 C92.623,272.797 94.347,289.139 77.508,295.182 C60.675,301.222 43.854,305.47 40.776,292.187 C37.625,278.621 37.108,278.684 41.26,270.806" fill="#FCEDD7"/>
      <path d="M41.26,270.806 C45.409,262.935 71.926,248.849 82.271,260.824 C92.623,272.797 94.347,289.139 77.508,295.182 C60.675,301.222 43.854,305.47 40.776,292.187 C37.625,278.621 37.108,278.684 41.26,270.806 z" fill-opacity="0" stroke="#797979" stroke-width="4" stroke-linecap="round" stroke-linejoin="round"/>
    </g>
  </g>
</svg>
