<?xml version="1.0" encoding="UTF-8"?>
<!DOCTYPE svg PUBLIC "-//W3C//DTD SVG 1.1//EN" "http://www.w3.org/Graphics/SVG/1.1/DTD/svg11.dtd">
<svg version="1.1" xmlns="http://www.w3.org/2000/svg" xmlns:xlink="http://www.w3.org/1999/xlink" x="0" y="0" width="244" height="373" viewBox="0, 0, 244, 373">
  <defs>
    <clipPath id="Clip_1">
      <path d="M241.523,2.862 L241.523,371.152 L2.475,371.152 L2.475,2.862 L241.523,2.862 z"/>
    </clipPath>
  </defs>
  <g id="Layer_1">
    <g clip-path="url(#Clip_1)">
      <path d="M206.174,173.956 C218.061,171.399 223.883,164.711 223.883,153.114 C223.883,140.954 217.455,135.941 210.744,134.011 L210.739,133.92 L210.819,133.92 C210.819,133.92 218.426,53.233 203.76,41.233 C197.739,36.307 192.52,34.305 188.455,33.652 C184.17,28.939 174.715,20.02 159.5,13.233 L162.166,19.9 C162.166,19.9 151.039,11.364 137.834,11.233 C124.631,11.102 116.835,10.566 116.835,10.566 L119.167,17.233 C119.167,17.233 104.503,11.567 90.169,15.233 L92.835,20.233 C92.835,20.233 75.835,16.899 60.501,27.566 L62.169,32.566 C62.169,32.566 60.169,29.233 45.501,41.233 C30.835,53.233 38.443,133.92 38.443,133.92 L38.52,133.92 C38.519,133.95 38.517,133.981 38.515,134.011 C31.805,135.941 25.379,140.955 25.379,153.114 C25.379,164.711 31.201,171.399 43.086,173.956 C52.553,206.713 76.494,233.195 116.398,236.39 L96.146,245.559 C88.114,247.592 79.359,250.06 75.93,251.921 L76.172,252.917 C76.094,252.958 76.003,252.999 75.93,253.039 C75.689,253.169 75.111,254.025 74.273,255.461 L66.208,259.113 L69.017,265.319 C65.017,273.195 59.847,283.955 54.964,294.861 C54.507,295.314 54.056,295.777 53.617,296.253 C51.103,298.974 50.097,302.335 50.134,305.939 C44.816,318.517 40.586,330.005 39.824,335.937 C38.078,349.53 54.218,355.355 63.201,348.278 C65.934,346.124 69.258,341.749 72.652,336.274 C74.902,336.518 76.752,336.417 78.573,335.973 L67.873,402.285 L70.58,414.364 L70.875,414.364 L70.875,429.363 L74.201,429.363 L70.306,560.591 C70.262,588.982 64.185,643.549 64.609,647.082 C65.508,654.586 70.373,658.924 70.373,658.924 C70.373,658.924 65.004,666.803 66.258,668.67 C66.628,669.222 69.404,669.447 73.123,669.491 C70.747,670.363 68.6,671.523 66.951,673.073 C60.31,679.309 64.406,681.308 64.406,681.308 L96.252,681.308 L96.252,668.67 C96.252,668.67 100.09,665.671 100.09,663.004 C100.09,661.113 98.443,656.799 97.482,654.445 L97.566,651.847 C99.012,649.884 102.012,645.413 101.758,642.367 C101.496,639.231 108.437,575.478 109.685,553.474 L123.227,461.303 L124.631,459.747 L126.037,461.303 L139.582,553.474 C140.828,575.478 147.77,639.231 147.506,642.367 C147.252,645.413 150.252,649.884 151.698,651.847 L151.782,654.445 C150.821,656.799 149.172,661.113 149.172,663.004 C149.172,665.671 153.01,668.67 153.01,668.67 L153.01,681.308 L184.858,681.308 C184.858,681.308 188.953,679.309 182.313,673.073 C180.662,671.523 178.516,670.363 176.141,669.491 C179.86,669.447 182.637,669.222 183.006,668.67 C184.258,666.803 178.893,658.924 178.893,658.924 C178.893,658.924 183.756,654.586 184.655,647.082 C185.078,643.549 179.004,588.982 178.959,560.591 L175.063,429.363 L178.971,429.363 L178.971,414.364 L178.676,414.364 L181.383,402.285 L170.684,335.972 C172.506,336.418 174.358,336.518 176.61,336.274 C180.004,341.749 183.328,346.124 186.061,348.278 C195.043,355.355 211.184,349.53 209.438,335.937 C208.676,330.005 204.446,318.517 199.127,305.939 C199.164,302.335 198.159,298.974 195.645,296.253 C195.205,295.777 194.754,295.314 194.297,294.861 C185.319,274.808 175.369,255.254 173.516,253.208 L173.916,251.921 C171.584,250.656 166.785,249.11 161.43,247.61 L158.813,240.296 L152.653,242.501 L148.676,233.715 C179.176,225.647 198.032,202.127 206.174,173.956" fill="#797979"/>
      <path d="M206.174,173.956 C218.061,171.399 223.883,164.711 223.883,153.114 C223.883,140.954 217.455,135.941 210.744,134.011 L210.739,133.92 L210.819,133.92 C210.819,133.92 218.426,53.233 203.76,41.233 C197.739,36.307 192.52,34.305 188.455,33.652 C184.17,28.939 174.715,20.02 159.5,13.233 L162.166,19.9 C162.166,19.9 151.039,11.364 137.834,11.233 C124.631,11.102 116.835,10.566 116.835,10.566 L119.167,17.233 C119.167,17.233 104.503,11.567 90.169,15.233 L92.835,20.233 C92.835,20.233 75.835,16.899 60.501,27.566 L62.169,32.566 C62.169,32.566 60.169,29.233 45.501,41.233 C30.835,53.233 38.443,133.92 38.443,133.92 L38.52,133.92 C38.519,133.95 38.517,133.981 38.515,134.011 C31.805,135.941 25.379,140.955 25.379,153.114 C25.379,164.711 31.201,171.399 43.086,173.956 C52.553,206.713 76.494,233.195 116.398,236.39 L96.146,245.559 C88.114,247.592 79.359,250.06 75.93,251.921 L76.172,252.917 C76.094,252.958 76.003,252.999 75.93,253.039 C75.689,253.169 75.111,254.025 74.273,255.461 L66.208,259.113 L69.017,265.319 C65.017,273.195 59.847,283.955 54.964,294.861 C54.507,295.314 54.056,295.777 53.617,296.253 C51.103,298.974 50.097,302.335 50.134,305.939 C44.816,318.517 40.586,330.005 39.824,335.937 C38.078,349.53 54.218,355.355 63.201,348.278 C65.934,346.124 69.258,341.749 72.652,336.274 C74.902,336.518 76.752,336.417 78.573,335.973 L67.873,402.285 L70.58,414.364 L70.875,414.364 L70.875,429.363 L74.201,429.363 L70.306,560.591 C70.262,588.982 64.185,643.549 64.609,647.082 C65.508,654.586 70.373,658.924 70.373,658.924 C70.373,658.924 65.004,666.803 66.258,668.67 C66.628,669.222 69.404,669.447 73.123,669.491 C70.747,670.363 68.6,671.523 66.951,673.073 C60.31,679.309 64.406,681.308 64.406,681.308 L96.252,681.308 L96.252,668.67 C96.252,668.67 100.09,665.671 100.09,663.004 C100.09,661.113 98.443,656.799 97.482,654.445 L97.566,651.847 C99.012,649.884 102.012,645.413 101.758,642.367 C101.496,639.231 108.437,575.478 109.685,553.474 L123.227,461.303 L124.631,459.747 L126.037,461.303 L139.582,553.474 C140.828,575.478 147.77,639.231 147.506,642.367 C147.252,645.413 150.252,649.884 151.698,651.847 L151.782,654.445 C150.821,656.799 149.172,661.113 149.172,663.004 C149.172,665.671 153.01,668.67 153.01,668.67 L153.01,681.308 L184.858,681.308 C184.858,681.308 188.953,679.309 182.313,673.073 C180.662,671.523 178.516,670.363 176.141,669.491 C179.86,669.447 182.637,669.222 183.006,668.67 C184.258,666.803 178.893,658.924 178.893,658.924 C178.893,658.924 183.756,654.586 184.655,647.082 C185.078,643.549 179.004,588.982 178.959,560.591 L175.063,429.363 L178.971,429.363 L178.971,414.364 L178.676,414.364 L181.383,402.285 L170.684,335.972 C172.506,336.418 174.358,336.518 176.61,336.274 C180.004,341.749 183.328,346.124 186.061,348.278 C195.043,355.355 211.184,349.53 209.438,335.937 C208.676,330.005 204.446,318.517 199.127,305.939 C199.164,302.335 198.159,298.974 195.645,296.253 C195.205,295.777 194.754,295.314 194.297,294.861 C185.319,274.808 175.369,255.254 173.516,253.208 L173.916,251.921 C171.584,250.656 166.785,249.11 161.43,247.61 L158.813,240.296 L152.653,242.501 L148.676,233.715 C179.176,225.647 198.032,202.127 206.174,173.956 z" fill-opacity="0" stroke="#797979" stroke-width="8" stroke-linecap="round" stroke-linejoin="round"/>
      <path d="M219.369,252.824 L213.471,230.442 L207.575,252.824 L213.471,275.207 z" fill="#FFE373"/>
      <path d="M213.471,245.278 L195.985,252.824 L213.471,260.375 L230.959,252.824 z" fill="#FFE373"/>
      <path d="M35.517,220.728 L29.62,198.346 L23.722,220.728 L29.62,243.112 z" fill="#FFE373"/>
      <path d="M29.62,213.182 L12.133,220.728 L29.62,228.28 L47.107,220.728 z" fill="#FFE373"/>
      <path d="M75.43,394.336 L74.338,424.741 L70.306,560.591 C70.262,588.982 64.185,643.549 64.609,647.082 C65.508,654.586 70.373,658.924 70.373,658.924 C70.373,658.924 65.004,666.803 66.258,668.67 C67.51,670.537 96.252,668.67 96.252,668.67 C96.252,668.67 100.09,665.671 100.09,663.004 C100.09,661.113 98.443,656.799 97.482,654.445 L97.566,651.847 C99.012,649.884 102.012,645.413 101.758,642.367 C101.496,639.231 108.437,575.478 109.685,553.474 L123.227,461.303 L124.631,459.747 L124.631,394.712 z" fill="#CADCDE"/>
      <path d="M75.43,394.336 L74.338,424.741 L70.306,560.591 C70.262,588.982 64.185,643.549 64.609,647.082 C65.508,654.586 70.373,658.924 70.373,658.924 C70.373,658.924 65.004,666.803 66.258,668.67 C67.51,670.537 96.252,668.67 96.252,668.67 C96.252,668.67 100.09,665.671 100.09,663.004 C100.09,661.113 98.443,656.799 97.482,654.445 L97.566,651.847 C99.012,649.884 102.012,645.413 101.758,642.367 C101.496,639.231 108.437,575.478 109.685,553.474 L123.227,461.303 L124.631,459.747 L124.631,394.712 L75.43,394.336 z" fill-opacity="0" stroke="#797979" stroke-width="4" stroke-linecap="round" stroke-linejoin="round"/>
      <path d="M173.834,394.336 L174.926,424.741 L178.959,560.591 C179.004,588.982 185.078,643.549 184.655,647.082 C183.756,654.586 178.893,658.924 178.893,658.924 C178.893,658.924 184.258,666.803 183.006,668.67 C181.754,670.537 153.01,668.67 153.01,668.67 C153.01,668.67 149.172,665.671 149.172,663.004 C149.172,661.113 150.821,656.799 151.782,654.445 L151.698,651.847 C150.252,649.884 147.252,645.413 147.506,642.367 C147.77,639.231 140.828,575.478 139.582,553.474 L126.037,461.303 L124.631,459.747 L124.631,394.712 z" fill="#CADCDE"/>
      <path d="M173.834,394.336 L174.926,424.741 L178.959,560.591 C179.004,588.982 185.078,643.549 184.655,647.082 C183.756,654.586 178.893,658.924 178.893,658.924 C178.893,658.924 184.258,666.803 183.006,668.67 C181.754,670.537 153.01,668.67 153.01,668.67 C153.01,668.67 149.172,665.671 149.172,663.004 C149.172,661.113 150.821,656.799 151.782,654.445 L151.698,651.847 C150.252,649.884 147.252,645.413 147.506,642.367 C147.77,639.231 140.828,575.478 139.582,553.474 L126.037,461.303 L124.631,459.747 L124.631,394.712 L173.834,394.336 z" fill-opacity="0" stroke="#797979" stroke-width="4" stroke-linecap="round" stroke-linejoin="round"/>
      <path d="M45.501,41.233 C60.169,29.233 62.169,32.566 62.169,32.566 L60.501,27.566 C75.835,16.899 92.835,20.233 92.835,20.233 L90.169,15.233 C104.503,11.567 119.167,17.233 119.167,17.233 L116.835,10.566 C116.835,10.566 124.631,11.102 137.834,11.233 C151.039,11.364 162.166,19.9 162.166,19.9 L159.5,13.233 C174.715,20.02 184.17,28.939 188.455,33.652 C192.52,34.305 197.739,36.307 203.76,41.233 C218.426,53.233 210.819,133.92 210.819,133.92 L124.631,133.92 L38.443,133.92 C38.443,133.92 30.835,53.233 45.501,41.233" fill="#AC9A6D"/>
      <path d="M45.501,41.233 C60.169,29.233 62.169,32.566 62.169,32.566 L60.501,27.566 C75.835,16.899 92.835,20.233 92.835,20.233 L90.169,15.233 C104.503,11.567 119.167,17.233 119.167,17.233 L116.835,10.566 C116.835,10.566 124.631,11.102 137.834,11.233 C151.039,11.364 162.166,19.9 162.166,19.9 L159.5,13.233 C174.715,20.02 184.17,28.939 188.455,33.652 C192.52,34.305 197.739,36.307 203.76,41.233 C218.426,53.233 210.819,133.92 210.819,133.92 L124.631,133.92 L38.443,133.92 C38.443,133.92 30.835,53.233 45.501,41.233 z" fill-opacity="0" stroke="#797979" stroke-width="4" stroke-linecap="round" stroke-linejoin="round"/>
      <path d="M173.916,251.921 C166.922,248.127 137.793,241.804 137.793,241.804 L112.053,241.804 C112.053,241.804 82.923,248.127 75.93,251.921 L86.031,293.53 L160.977,293.53 z" fill="#CADCDE"/>
      <path d="M173.916,251.921 C166.922,248.127 137.793,241.804 137.793,241.804 L112.053,241.804 C112.053,241.804 82.923,248.127 75.93,251.921 L86.031,293.53 L160.977,293.53 L173.916,251.921 z" fill-opacity="0" stroke="#797979" stroke-width="4" stroke-linecap="round" stroke-linejoin="round"/>
      <path d="M132.59,242.288 L131.121,226.772 L124.631,222.552 L118.14,226.772 L116.672,242.288 C116.672,242.288 114.924,253.714 124.631,253.714 C134.338,253.714 132.59,242.288 132.59,242.288" fill="#FFEFD9"/>
      <path d="M132.59,242.288 L131.121,226.772 L124.631,222.552 L118.14,226.772 L116.672,242.288 C116.672,242.288 114.924,253.714 124.631,253.714 C134.338,253.714 132.59,242.288 132.59,242.288 z" fill-opacity="0" stroke="#797979" stroke-width="4" stroke-linecap="round" stroke-linejoin="round"/>
      <path d="M112.052,242.922 C112.052,242.922 82.922,249.245 75.93,253.039 C73.678,254.26 42.044,318.66 39.824,335.937 C38.078,349.53 54.218,355.355 63.201,348.278 C71.895,341.428 86.565,312.117 90.463,296.297" fill="#CADCDE"/>
      <path d="M112.052,242.922 C112.052,242.922 82.922,249.245 75.93,253.039 C73.678,254.26 42.044,318.66 39.824,335.937 C38.078,349.53 54.218,355.355 63.201,348.278 C71.895,341.428 86.565,312.117 90.463,296.297" fill-opacity="0" stroke="#797979" stroke-width="4" stroke-linecap="round" stroke-linejoin="round"/>
      <path d="M137.209,242.922 C137.209,242.922 166.34,249.245 173.332,253.039 C175.584,254.26 207.217,318.66 209.438,335.937 C211.184,349.53 195.043,355.355 186.061,348.278 C177.368,341.428 162.696,312.117 158.799,296.297" fill="#CADCDE"/>
      <path d="M137.209,242.922 C137.209,242.922 166.34,249.245 173.332,253.039 C175.584,254.26 207.217,318.66 209.438,335.937 C211.184,349.53 195.043,355.355 186.061,348.278 C177.368,341.428 162.696,312.117 158.799,296.297" fill-opacity="0" stroke="#797979" stroke-width="4" stroke-linecap="round" stroke-linejoin="round"/>
      <path d="M86.228,288.53 L67.873,402.285 L70.58,414.364 L178.676,414.364 L181.383,402.285 L163.03,288.53" fill="#CADCDE"/>
      <path d="M86.228,288.53 L67.873,402.285 L70.58,414.364 L178.676,414.364 L181.383,402.285 L163.03,288.53" fill-opacity="0" stroke="#797979" stroke-width="4" stroke-linecap="round" stroke-linejoin="round"/>
      <path d="M116.673,240.589 C116.673,240.589 105.427,243.369 105.425,243.386 C105.389,243.58 109.231,260.447 124.602,260.447 C139.973,260.447 143.832,243.361 143.832,243.361 L132.588,240.589" fill="#FFEFD9"/>
      <path d="M116.673,240.589 C116.673,240.589 105.427,243.369 105.425,243.386 C105.389,243.58 109.231,260.447 124.602,260.447 C139.973,260.447 143.832,243.361 143.832,243.361 L132.588,240.589" fill-opacity="0" stroke="#797979" stroke-width="4" stroke-linecap="round" stroke-linejoin="round"/>
      <path d="M124.631,253.797 C117.906,253.797 113.523,252.89 110.664,251.655 L124.631,305.03 L138.598,251.655 C135.741,252.89 131.358,253.797 124.631,253.797" fill="#797979"/>
      <path d="M124.631,253.797 C117.906,253.797 113.523,252.89 110.664,251.655 L124.631,305.03 L138.598,251.655 C135.741,252.89 131.358,253.797 124.631,253.797 z" fill-opacity="0" stroke="#797979" stroke-width="4" stroke-linecap="round" stroke-linejoin="round"/>
      <path d="M128.131,414.53 L120.605,414.53 L120.605,287.738 L128.131,287.738 z" fill="#CADCDE"/>
      <path d="M128.131,414.53 L120.605,414.53 L120.605,287.738 L128.131,287.738 L128.131,414.53 z" fill-opacity="0" stroke="#797979" stroke-width="4" stroke-linecap="round" stroke-linejoin="round"/>
      <path d="M124.631,291.449 L107.914,242.901 L90.173,267.872 z" fill="#CADCDE"/>
      <path d="M124.631,291.449 L107.914,242.901 L90.173,267.872 L124.631,291.449 z" fill-opacity="0" stroke="#797979" stroke-width="4" stroke-linecap="round" stroke-linejoin="round"/>
      <path d="M124.631,291.449 L141.348,242.901 L159.088,267.872 z" fill="#CADCDE"/>
      <path d="M124.631,291.449 L141.348,242.901 L159.088,267.872 L124.631,291.449 z" fill-opacity="0" stroke="#797979" stroke-width="4" stroke-linecap="round" stroke-linejoin="round"/>
      <path d="M134.707,326.448 C134.6,332.865 138.049,338.128 142.414,338.201 L164.049,338.621 C168.414,338.696 172.041,333.551 172.151,327.136 L170.098,300.791 C170.207,294.377 169.233,290.408 164.869,290.333 L144.368,289.986 C140,289.912 135.243,294.982 135.131,301.397 z" fill="#CADCDE"/>
      <path d="M134.707,326.448 C134.6,332.865 138.049,338.128 142.414,338.201 L164.049,338.621 C168.414,338.696 172.041,333.551 172.151,327.136 L170.098,300.791 C170.207,294.377 169.233,290.408 164.869,290.333 L144.368,289.986 C140,289.912 135.243,294.982 135.131,301.397 L134.707,326.448 z" fill-opacity="0" stroke="#797979" stroke-width="4" stroke-linecap="round" stroke-linejoin="round"/>
      <path d="M154.071,301.031 L154.981,338.445" fill="#CADCDE"/>
      <path d="M154.071,301.031 L154.981,338.445" fill-opacity="0" stroke="#797979" stroke-width="4" stroke-linecap="round" stroke-linejoin="round"/>
      <path d="M133.655,297.71 C133.635,299.014 134.5,300.085 135.59,300.103 L171.233,300.73 C172.326,300.747 173.227,299.706 173.248,298.403 L171.7,289.455 C171.721,288.151 134.395,287.583 134.371,288.887 z" fill="#CADCDE"/>
      <path d="M133.655,297.71 C133.635,299.014 134.5,300.085 135.59,300.103 L171.233,300.73 C172.326,300.747 173.227,299.706 173.248,298.403 L171.7,289.455 C171.721,288.151 134.395,287.583 134.371,288.887 L133.655,297.71 z" fill-opacity="0" stroke="#797979" stroke-width="4" stroke-linecap="round" stroke-linejoin="round"/>
      <path d="M114.554,326.448 C114.661,332.865 111.212,338.128 106.847,338.201 L85.212,338.621 C80.847,338.696 77.221,333.551 77.11,327.136 L79.163,300.791 C79.054,294.377 80.028,290.408 84.393,290.333 L104.895,289.986 C109.261,289.912 114.02,294.982 114.13,301.397 z" fill="#CADCDE"/>
      <path d="M114.554,326.448 C114.661,332.865 111.212,338.128 106.847,338.201 L85.212,338.621 C80.847,338.696 77.221,333.551 77.11,327.136 L79.163,300.791 C79.054,294.377 80.028,290.408 84.393,290.333 L104.895,289.986 C109.261,289.912 114.02,294.982 114.13,301.397 L114.554,326.448 z" fill-opacity="0" stroke="#797979" stroke-width="4" stroke-linecap="round" stroke-linejoin="round"/>
      <path d="M95.19,301.031 L94.28,338.445" fill="#CADCDE"/>
      <path d="M95.19,301.031 L94.28,338.445" fill-opacity="0" stroke="#797979" stroke-width="4" stroke-linecap="round" stroke-linejoin="round"/>
      <path d="M115.606,297.71 C115.627,299.014 114.763,300.085 113.671,300.103 L78.029,300.73 C76.936,300.747 76.035,299.706 76.013,298.403 L77.562,289.455 C77.54,288.151 114.867,287.583 114.889,288.887 z" fill="#CADCDE"/>
      <path d="M115.606,297.71 C115.627,299.014 114.763,300.085 113.671,300.103 L78.029,300.73 C76.936,300.747 76.035,299.706 76.013,298.403 L77.562,289.455 C77.54,288.151 114.867,287.583 114.889,288.887 L115.606,297.71 z" fill-opacity="0" stroke="#797979" stroke-width="4" stroke-linecap="round" stroke-linejoin="round"/>
      <path d="M53.52,133.478 C53.52,133.478 25.379,127.67 25.379,153.114 C25.379,168.08 35.066,174.876 54.984,175.161" fill="#FFEFD9"/>
      <path d="M53.52,133.478 C53.52,133.478 25.379,127.67 25.379,153.114 C25.379,168.08 35.066,174.876 54.984,175.161" fill-opacity="0" stroke="#797979" stroke-width="4" stroke-linecap="round" stroke-linejoin="round"/>
      <path d="M36.102,154.491 C36.102,154.491 39.791,152.787 43.306,152.809" fill="#FFEFD9"/>
      <path d="M36.102,154.491 C36.102,154.491 39.791,152.787 43.306,152.809" fill-opacity="0" stroke="#797979" stroke-width="4" stroke-linecap="round" stroke-linejoin="round"/>
      <path d="M195.741,133.478 C195.741,133.478 223.883,127.67 223.883,153.114 C223.883,168.08 214.194,174.876 194.276,175.161" fill="#FFEFD9"/>
      <path d="M195.741,133.478 C195.741,133.478 223.883,127.67 223.883,153.114 C223.883,168.08 214.194,174.876 194.276,175.161" fill-opacity="0" stroke="#797979" stroke-width="4" stroke-linecap="round" stroke-linejoin="round"/>
      <path d="M213.159,154.491 C213.159,154.491 209.469,152.787 205.953,152.809" fill="#FFEFD9"/>
      <path d="M213.159,154.491 C213.159,154.491 209.469,152.787 205.953,152.809" fill-opacity="0" stroke="#797979" stroke-width="4" stroke-linecap="round" stroke-linejoin="round"/>
      <path d="M124.629,236.714 C3.869,236.714 15.554,35.264 124.629,35.264 C233.707,35.264 245.391,236.714 124.629,236.714" fill="#FFEFD9"/>
      <path d="M124.629,236.714 C3.869,236.714 15.554,35.264 124.629,35.264 C233.707,35.264 245.391,236.714 124.629,236.714 z" fill-opacity="0" stroke="#797979" stroke-width="4" stroke-linecap="round" stroke-linejoin="round"/>
      <path d="M53.914,58.931 L54.877,71.439 C66.37,61.696 78.712,57.422 78.712,57.422 L77.638,66.693 C84.228,57.725 104.876,52.063 104.876,52.063 L104.014,62.7 C116.412,54.742 133.887,54.08 133.887,54.08 L128.389,63.175 C136.598,59.429 160.858,54.521 160.858,54.521 L157.881,64.242 C184.565,63.977 192.987,62.167 192.987,62.167 C192.987,62.167 186.963,36.909 178.209,32.097 C169.455,27.284 135.354,22.104 122.705,21.42 C110.055,20.737 64.645,33.307 59.977,39.397 C55.307,45.487 53.914,58.931 53.914,58.931" fill="#AC9A6D"/>
      <path d="M192.987,62.167 C192.987,62.167 184.565,63.977 157.881,64.242 L160.858,54.521 C160.858,54.521 136.598,59.429 128.389,63.175 L133.887,54.08 C133.887,54.08 116.412,54.742 104.014,62.7 L104.876,52.063 C104.876,52.063 84.228,57.725 77.638,66.693 L78.712,57.422 C78.712,57.422 66.37,61.696 54.877,71.439 L53.914,58.931" fill-opacity="0" stroke="#797979" stroke-width="4" stroke-linecap="round" stroke-linejoin="round"/>
      <path d="M76.513,105.617 L98.23,110.033" fill-opacity="0" stroke="#797979" stroke-width="4" stroke-linecap="round" stroke-linejoin="round"/>
      <path d="M172.746,105.617 L151.03,110.033" fill-opacity="0" stroke="#797979" stroke-width="4" stroke-linecap="round" stroke-linejoin="round"/>
      <path d="M120.712,169.394 C120.712,169.394 119.379,175.394 124.631,175.061" fill-opacity="0" stroke="#797979" stroke-width="4" stroke-linecap="round" stroke-linejoin="round"/>
      <path d="M158.328,191.03 C157.076,189.851 152.328,187.53 148.328,191.03 C145.354,193.632 137.078,199.28 124.328,199.28 C111.578,199.28 103.303,193.632 100.328,191.03 C96.328,187.53 91.581,189.851 90.328,191.03 C84.009,196.975 94.982,210.852 116.478,213.739 C118.523,214.083 121.032,214.28 124.078,214.28 C124.162,214.28 124.244,214.275 124.328,214.275 C124.412,214.275 124.494,214.28 124.578,214.28 C127.623,214.28 130.133,214.083 132.178,213.739 C153.674,210.852 164.647,196.975 158.328,191.03" fill="#F4ACA6"/>
      <path d="M158.328,191.03 C157.076,189.851 152.328,187.53 148.328,191.03 C145.354,193.632 137.078,199.28 124.328,199.28 C111.578,199.28 103.303,193.632 100.328,191.03 C96.328,187.53 91.581,189.851 90.328,191.03 C84.009,196.975 94.982,210.852 116.478,213.739 C118.523,214.083 121.032,214.28 124.078,214.28 C124.162,214.28 124.244,214.275 124.328,214.275 C124.412,214.275 124.494,214.28 124.578,214.28 C127.623,214.28 130.133,214.083 132.178,213.739 C153.674,210.852 164.647,196.975 158.328,191.03 z" fill-opacity="0" stroke="#797979" stroke-width="4" stroke-linecap="round" stroke-linejoin="round"/>
      <path d="M78.828,138.28 C78.828,138.28 80.078,129.03 88.578,129.03 C97.078,129.03 97.894,138.162 97.894,138.162" fill-opacity="0" stroke="#797979" stroke-width="4" stroke-linecap="round" stroke-linejoin="round"/>
      <path d="M170.434,138.28 C170.434,138.28 169.184,129.03 160.684,129.03 C152.184,129.03 151.368,138.162 151.368,138.162" fill-opacity="0" stroke="#797979" stroke-width="4" stroke-linecap="round" stroke-linejoin="round"/>
      <path d="M84.271,154.61 C84.271,157.371 79.795,159.61 74.271,159.61 C68.748,159.61 64.271,157.371 64.271,154.61 C64.271,151.848 68.748,149.61 74.271,149.61 C79.795,149.61 84.271,151.848 84.271,154.61" fill="#FFD9D9"/>
      <path d="M164.991,154.61 C164.991,157.371 169.469,159.61 174.991,159.61 C180.514,159.61 184.991,157.371 184.991,154.61 C184.991,151.848 180.514,149.61 174.991,149.61 C169.469,149.61 164.991,151.848 164.991,154.61" fill="#FFD9D9"/>
      <path d="M63.006,279.448 L186.256,279.448 C186.256,279.448 135.006,292.448 126.006,292.448 C117.006,292.448 63.006,279.448 63.006,279.448" fill="#AF9C7F"/>
      <path d="M63.006,279.448 L186.256,279.448 C186.256,279.448 135.006,292.448 126.006,292.448 C117.006,292.448 63.006,279.448 63.006,279.448 z" fill-opacity="0" stroke="#797979" stroke-width="4" stroke-linecap="round" stroke-linejoin="round"/>
      <path d="M160.647,260.159 L82.665,295.46 L66.208,259.113 L144.192,223.807 z" fill="#E0DCC6"/>
      <path d="M160.647,260.159 L82.665,295.46 L66.208,259.113 L144.192,223.807 L160.647,260.159 z" fill-opacity="0" stroke="#797979" stroke-width="4" stroke-linecap="round" stroke-linejoin="round"/>
      <path d="M124.674,254.541 C127.93,261.74 125.537,269.851 119.328,272.662 C113.115,275.475 105.438,271.923 102.18,264.725 C98.922,257.528 101.313,249.416 107.529,246.604 C113.742,243.79 121.418,247.344 124.674,254.541" fill="#FFFFFF"/>
      <path d="M95.402,261.302 C97.849,266.707 95.805,272.912 90.835,275.164 C85.869,277.409 79.854,274.854 77.405,269.448 C74.961,264.039 77.005,257.832 81.973,255.582 C86.94,253.336 92.954,255.894 95.402,261.302" fill="#B0AA8E"/>
      <path d="M85.54,275.067 C85.54,275.067 82.67,281.727 88.496,289.872 L103.824,282.932 C103.824,282.932 100.131,274.456 94.471,270.691 z" fill="#B0AA8E"/>
      <path d="M143.016,230.74 C143.494,231.789 140.647,234.104 136.662,235.913 C132.674,237.714 129.057,238.328 128.586,237.274 C128.104,236.224 130.951,233.908 134.938,232.099 C138.924,230.298 142.539,229.686 143.016,230.74" fill="#B0AA8E"/>
      <path d="M172.258,277.864 L91.665,306.71 L78.218,269.145 L158.813,240.296 z" fill="#E0DCC6"/>
      <path d="M172.258,277.864 L91.665,306.71 L78.218,269.145 L158.813,240.296 L172.258,277.864 z" fill-opacity="0" stroke="#797979" stroke-width="4" stroke-linecap="round" stroke-linejoin="round"/>
      <path d="M136.862,269.342 C139.522,276.782 136.477,284.67 130.059,286.967 C123.639,289.266 116.276,285.103 113.614,277.662 C110.951,270.225 113.994,262.334 120.418,260.036 C126.838,257.738 134.201,261.904 136.862,269.342" fill="#FFFFFF"/>
      <path d="M107.137,273.7 C109.137,279.287 106.594,285.305 101.458,287.146 C96.326,288.979 90.539,285.943 88.536,280.357 C86.541,274.767 89.083,268.747 94.218,266.909 C99.351,265.073 105.137,268.111 107.137,273.7" fill="#B0AA8E"/>
      <path d="M96.188,286.618 C96.188,286.618 92.787,293.023 97.931,301.615 L113.773,295.943 C113.773,295.943 110.78,287.196 105.444,282.982 z" fill="#B0AA8E"/>
      <path d="M157.078,247.11 C157.467,248.195 154.442,250.271 150.325,251.749 C146.203,253.221 142.549,253.538 142.164,252.45 C141.77,251.364 144.793,249.286 148.916,247.808 C153.035,246.337 156.688,246.022 157.078,247.11" fill="#B0AA8E"/>
      <path d="M178.28,289.149 L96.613,314.802 L84.653,276.737 L166.321,251.08 z" fill="#E0DCC6"/>
      <path d="M178.28,289.149 L96.613,314.802 L84.653,276.737 L166.321,251.08 L178.28,289.149 z" fill-opacity="0" stroke="#797979" stroke-width="4" stroke-linecap="round" stroke-linejoin="round"/>
      <path d="M143.244,279.241 C145.61,286.779 142.258,294.541 135.754,296.585 C129.248,298.629 122.055,294.179 119.687,286.64 C117.319,279.104 120.671,271.339 127.18,269.295 C133.686,267.251 140.879,271.703 143.244,279.241" fill="#FFFFFF"/>
      <path d="M113.372,282.427 C115.149,288.087 112.373,294 107.168,295.638 C101.969,297.268 96.305,294.006 94.523,288.346 C92.749,282.682 95.526,276.767 100.729,275.131 C105.93,273.499 111.593,276.762 113.372,282.427" fill="#B0AA8E"/>
      <path d="M101.924,294.904 C101.924,294.904 98.272,301.168 103.076,309.956 L119.128,304.912 C119.128,304.912 116.481,296.054 111.315,291.634 z" fill="#B0AA8E"/>
      <path d="M164.319,257.821 C164.666,258.92 161.563,260.875 157.389,262.191 C153.213,263.499 149.549,263.673 149.207,262.57 C148.856,261.469 151.959,259.512 156.135,258.197 C160.309,256.889 163.973,256.718 164.319,257.821" fill="#B0AA8E"/>
      <path d="M175.246,306.279 L90.226,316.238 L85.582,276.609 L170.604,266.647 z" fill="#E0DCC6"/>
      <path d="M175.246,306.279 L90.226,316.238 L85.582,276.609 L170.604,266.647 L175.246,306.279 z" fill-opacity="0" stroke="#797979" stroke-width="4" stroke-linecap="round" stroke-linejoin="round"/>
      <path d="M142.676,290.005 C143.594,297.853 138.852,304.853 132.08,305.648 C125.307,306.441 119.07,300.726 118.152,292.878 C117.232,285.032 121.974,278.029 128.75,277.237 C135.524,276.443 141.76,282.159 142.676,290.005" fill="#FFFFFF"/>
      <path d="M112.734,287.561 C113.424,293.452 109.593,298.743 104.174,299.381 C98.762,300.012 93.805,295.75 93.112,289.857 C92.426,283.961 96.259,278.668 101.676,278.033 C107.09,277.4 112.044,281.662 112.734,287.561" fill="#B0AA8E"/>
      <path d="M99.158,297.68 C99.158,297.68 94.402,303.153 97.48,312.683 L114.191,310.725 C114.191,310.725 113.246,301.528 108.995,296.222 z" fill="#B0AA8E"/>
      <path d="M167.379,272.896 C167.514,274.04 164.1,275.381 159.754,275.895 C155.409,276.401 151.776,275.888 151.647,274.741 C151.506,273.593 154.92,272.25 159.27,271.737 C163.614,271.232 167.244,271.747 167.379,272.896" fill="#B0AA8E"/>
      <path d="M173.16,314.011 L87.81,320.578 L84.746,280.795 L170.098,274.225 z" fill="#E0DCC6"/>
      <path d="M173.16,314.011 L87.81,320.578 L84.746,280.795 L170.098,274.225 L173.16,314.011 z" fill-opacity="0" stroke="#797979" stroke-width="4" stroke-linecap="round" stroke-linejoin="round"/>
      <path d="M141.262,296.453 C141.868,304.331 136.848,311.137 130.053,311.662 C123.254,312.184 117.249,306.227 116.642,298.349 C116.037,290.471 121.055,283.662 127.856,283.141 C134.655,282.617 140.659,288.576 141.262,296.453" fill="#FFFFFF"/>
      <path d="M111.441,292.819 C111.896,298.735 107.857,303.868 102.417,304.289 C96.984,304.704 92.201,300.248 91.745,294.333 C91.293,288.415 95.332,283.279 100.771,282.858 C106.207,282.443 110.986,286.899 111.441,292.819" fill="#B0AA8E"/>
      <path d="M97.472,302.39 C97.472,302.39 92.504,307.67 95.201,317.316 L111.975,316.024 C111.975,316.024 111.396,306.795 107.36,301.325 z" fill="#B0AA8E"/>
      <path d="M166.627,280.34 C166.717,281.492 163.252,282.695 158.889,283.034 C154.526,283.367 150.916,282.709 150.834,281.558 C150.739,280.406 154.203,279.2 158.569,278.86 C162.932,278.529 166.537,279.188 166.627,280.34" fill="#B0AA8E"/>
      <path d="M124.631,289.7 C118.631,289.7 62.131,279.448 62.131,279.448 L72.631,317.2 C72.631,317.2 116.381,332.2 124.631,332.2 C132.881,332.2 176.631,317.2 176.631,317.2 L187.131,279.448 C187.131,279.448 130.631,289.7 124.631,289.7" fill="#AF9C7F"/>
      <path d="M124.631,289.7 C118.631,289.7 62.131,279.448 62.131,279.448 L72.631,317.2 C72.631,317.2 116.381,332.2 124.631,332.2 C132.881,332.2 176.631,317.2 176.631,317.2 L187.131,279.448 C187.131,279.448 130.631,289.7 124.631,289.7 z" fill-opacity="0" stroke="#797979" stroke-width="4" stroke-linecap="round" stroke-linejoin="round"/>
      <path d="M124.631,296.2 L124.631,326.825" fill="#AF9C7F"/>
      <path d="M124.631,296.2 L124.631,326.825" fill-opacity="0" stroke="#797979" stroke-width="4" stroke-linecap="round" stroke-linejoin="round"/>
      <path d="M71.389,336.11 C79.047,337.284 81.942,334.968 92.181,329.201 C104.942,322.015 99.018,308.627 90.4,293.935 C81.785,279.245 64.823,284.111 53.617,296.253 C45.93,304.575 52.274,318.873 59.769,327.889 C64.225,333.249 68.878,335.724 71.389,336.11" fill="#FFEFD9"/>
      <path d="M71.389,336.11 C79.047,337.284 81.942,334.968 92.181,329.201 C104.942,322.015 99.018,308.627 90.4,293.935 C81.785,279.245 64.823,284.111 53.617,296.253 C45.93,304.575 52.274,318.873 59.769,327.889 C64.225,333.249 68.878,335.724 71.389,336.11 z" fill-opacity="0" stroke="#797979" stroke-width="4" stroke-linecap="round" stroke-linejoin="round"/>
      <path d="M80.937,296.162 L87.658,293.104" fill="#FFEFD9"/>
      <path d="M80.937,296.162 L87.658,293.104" fill-opacity="0" stroke="#797979" stroke-width="4" stroke-linecap="round" stroke-linejoin="round"/>
      <path d="M86.038,305.351 L92.757,302.291" fill="#FFEFD9"/>
      <path d="M86.038,305.351 L92.757,302.291" fill-opacity="0" stroke="#797979" stroke-width="4" stroke-linecap="round" stroke-linejoin="round"/>
      <path d="M90.716,314.575 L97.436,311.516" fill="#FFEFD9"/>
      <path d="M90.716,314.575 L97.436,311.516" fill-opacity="0" stroke="#797979" stroke-width="4" stroke-linecap="round" stroke-linejoin="round"/>
      <path d="M177.871,336.11 C170.215,337.284 167.319,334.968 157.08,329.201 C144.319,322.015 150.244,308.627 158.862,293.935 C167.477,279.245 184.438,284.111 195.645,296.253 C203.33,304.575 196.987,318.873 189.493,327.889 C185.035,333.249 180.383,335.724 177.871,336.11" fill="#FFEFD9"/>
      <path d="M177.871,336.11 C170.215,337.284 167.319,334.968 157.08,329.201 C144.319,322.015 150.244,308.627 158.862,293.935 C167.477,279.245 184.438,284.111 195.645,296.253 C203.33,304.575 196.987,318.873 189.493,327.889 C185.035,333.249 180.383,335.724 177.871,336.11 z" fill-opacity="0" stroke="#797979" stroke-width="4" stroke-linecap="round" stroke-linejoin="round"/>
      <path d="M168.325,296.162 L161.604,293.104" fill="#FFEFD9"/>
      <path d="M168.325,296.162 L161.604,293.104" fill-opacity="0" stroke="#797979" stroke-width="4" stroke-linecap="round" stroke-linejoin="round"/>
      <path d="M163.223,305.351 L156.504,302.291" fill="#FFEFD9"/>
      <path d="M163.223,305.351 L156.504,302.291" fill-opacity="0" stroke="#797979" stroke-width="4" stroke-linecap="round" stroke-linejoin="round"/>
      <path d="M158.545,314.575 L151.826,311.516" fill="#FFEFD9"/>
      <path d="M158.545,314.575 L151.826,311.516" fill-opacity="0" stroke="#797979" stroke-width="4" stroke-linecap="round" stroke-linejoin="round"/>
    </g>
  </g>
</svg>
